# Tiled2Unity generated file. Do not modify by hand.
# Wavefront file for 'CaveMap_mesh_0005.obj'

# Vertices (Count = 728)
v -4 -2 0
v -5 -2 0
v -5 -1 0
v -4 -1 0
v -5 -2 0
v -6 -2 0
v -6 -1 0
v -5 -1 0
v -6 -2 0
v -7 -2 0
v -7 -1 0
v -6 -1 0
v -7 -2 0
v -8 -2 0
v -8 -1 0
v -7 -1 0
v -8 -2 0
v -9 -2 0
v -9 -1 0
v -8 -1 0
v -9 -2 0
v -10 -2 0
v -10 -1 0
v -9 -1 0
v -4 -3 0
v -5 -3 0
v -5 -2 0
v -4 -2 0
v -5 -3 0
v -6 -3 0
v -6 -2 0
v -5 -2 0
v -6 -3 0
v -7 -3 0
v -7 -2 0
v -6 -2 0
v -7 -3 0
v -8 -3 0
v -8 -2 0
v -7 -2 0
v -8 -3 0
v -9 -3 0
v -9 -2 0
v -8 -2 0
v -9 -3 0
v -10 -3 0
v -10 -2 0
v -9 -2 0
v -27 -3 0
v -28 -3 0
v -28 -2 0
v -27 -2 0
v -28 -3 0
v -29 -3 0
v -29 -2 0
v -28 -2 0
v -4 -4 0
v -5 -4 0
v -5 -3 0
v -4 -3 0
v -7 -4 0
v -8 -4 0
v -8 -3 0
v -7 -3 0
v -8 -4 0
v -9 -4 0
v -9 -3 0
v -8 -3 0
v -10 -4 0
v -11 -4 0
v -11 -3 0
v -10 -3 0
v -25 -4 0
v -26 -4 0
v -26 -3 0
v -25 -3 0
v -4 -5 0
v -5 -5 0
v -5 -4 0
v -4 -4 0
v -7 -5 0
v -8 -5 0
v -8 -4 0
v -7 -4 0
v -9 -5 0
v -10 -5 0
v -10 -4 0
v -9 -4 0
v -10 -5 0
v -11 -5 0
v -11 -4 0
v -10 -4 0
v -25 -5 0
v -26 -5 0
v -26 -4 0
v -25 -4 0
v -26 -5 0
v -27 -5 0
v -27 -4 0
v -26 -4 0
v -4 -6 0
v -5 -6 0
v -5 -5 0
v -4 -5 0
v -7 -6 0
v -8 -6 0
v -8 -5 0
v -7 -5 0
v -8 -6 0
v -9 -6 0
v -9 -5 0
v -8 -5 0
v -9 -6 0
v -10 -6 0
v -10 -5 0
v -9 -5 0
v -25 -6 0
v -26 -6 0
v -26 -5 0
v -25 -5 0
v -26 -6 0
v -27 -6 0
v -27 -5 0
v -26 -5 0
v -4 -7 0
v -5 -7 0
v -5 -6 0
v -4 -6 0
v -7 -7 0
v -8 -7 0
v -8 -6 0
v -7 -6 0
v -19 -7 0
v -20 -7 0
v -20 -6 0
v -19 -6 0
v -20 -7 0
v -21 -7 0
v -21 -6 0
v -20 -6 0
v -21 -7 0
v -22 -7 0
v -22 -6 0
v -21 -6 0
v -22 -7 0
v -23 -7 0
v -23 -6 0
v -22 -6 0
v -23 -7 0
v -24 -7 0
v -24 -6 0
v -23 -6 0
v -24 -7 0
v -25 -7 0
v -25 -6 0
v -24 -6 0
v -25 -7 0
v -26 -7 0
v -26 -6 0
v -25 -6 0
v -4 -8 0
v -5 -8 0
v -5 -7 0
v -4 -7 0
v -5 -8 0
v -6 -8 0
v -6 -7 0
v -5 -7 0
v -6 -8 0
v -7 -8 0
v -7 -7 0
v -6 -7 0
v -7 -8 0
v -8 -8 0
v -8 -7 0
v -7 -7 0
v -3 -11 0
v -4 -11 0
v -4 -10 0
v -3 -10 0
v -8 -11 0
v -9 -11 0
v -9 -10 0
v -8 -10 0
v -19 -11 0
v -20 -11 0
v -20 -10 0
v -19 -10 0
v -28 -11 0
v -29 -11 0
v -29 -10 0
v -28 -10 0
v -6 -13 0
v -7 -13 0
v -7 -12 0
v -6 -12 0
v -7 -13 0
v -8 -13 0
v -8 -12 0
v -7 -12 0
v -8 -13 0
v -9 -13 0
v -9 -12 0
v -8 -12 0
v -9 -13 0
v -10 -13 0
v -10 -12 0
v -9 -12 0
v -10 -13 0
v -11 -13 0
v -11 -12 0
v -10 -12 0
v -11 -13 0
v -12 -13 0
v -12 -12 0
v -11 -12 0
v -12 -13 0
v -13 -13 0
v -13 -12 0
v -12 -12 0
v -13 -13 0
v -14 -13 0
v -14 -12 0
v -13 -12 0
v -6 -14 0
v -7 -14 0
v -7 -13 0
v -6 -13 0
v -13 -14 0
v -14 -14 0
v -14 -13 0
v -13 -13 0
v -14 -14 0
v -15 -14 0
v -15 -13 0
v -14 -13 0
v -15 -14 0
v -16 -14 0
v -16 -13 0
v -15 -13 0
v -16 -14 0
v -17 -14 0
v -17 -13 0
v -16 -13 0
v -17 -14 0
v -18 -14 0
v -18 -13 0
v -17 -13 0
v -18 -14 0
v -19 -14 0
v -19 -13 0
v -18 -13 0
v -19 -14 0
v -20 -14 0
v -20 -13 0
v -19 -13 0
v -20 -14 0
v -21 -14 0
v -21 -13 0
v -20 -13 0
v -21 -14 0
v -22 -14 0
v -22 -13 0
v -21 -13 0
v -22 -14 0
v -23 -14 0
v -23 -13 0
v -22 -13 0
v -23 -14 0
v -24 -14 0
v -24 -13 0
v -23 -13 0
v -24 -14 0
v -25 -14 0
v -25 -13 0
v -24 -13 0
v -6 -15 0
v -7 -15 0
v -7 -14 0
v -6 -14 0
v -11 -15 0
v -12 -15 0
v -12 -14 0
v -11 -14 0
v -12 -15 0
v -13 -15 0
v -13 -14 0
v -12 -14 0
v -13 -15 0
v -14 -15 0
v -14 -14 0
v -13 -14 0
v -14 -15 0
v -15 -15 0
v -15 -14 0
v -14 -14 0
v -24 -15 0
v -25 -15 0
v -25 -14 0
v -24 -14 0
v -6 -16 0
v -7 -16 0
v -7 -15 0
v -6 -15 0
v -9 -16 0
v -10 -16 0
v -10 -15 0
v -9 -15 0
v -10 -16 0
v -11 -16 0
v -11 -15 0
v -10 -15 0
v -15 -16 0
v -16 -16 0
v -16 -15 0
v -15 -15 0
v -16 -16 0
v -17 -16 0
v -17 -15 0
v -16 -15 0
v -24 -16 0
v -25 -16 0
v -25 -15 0
v -24 -15 0
v -25 -16 0
v -26 -16 0
v -26 -15 0
v -25 -15 0
v -26 -16 0
v -27 -16 0
v -27 -15 0
v -26 -15 0
v -27 -16 0
v -28 -16 0
v -28 -15 0
v -27 -15 0
v -6 -17 0
v -7 -17 0
v -7 -16 0
v -6 -16 0
v -9 -17 0
v -10 -17 0
v -10 -16 0
v -9 -16 0
v -16 -17 0
v -17 -17 0
v -17 -16 0
v -16 -16 0
v -23 -17 0
v -24 -17 0
v -24 -16 0
v -23 -16 0
v -24 -17 0
v -25 -17 0
v -25 -16 0
v -24 -16 0
v -25 -17 0
v -26 -17 0
v -26 -16 0
v -25 -16 0
v -27 -17 0
v -28 -17 0
v -28 -16 0
v -27 -16 0
v -6 -18 0
v -7 -18 0
v -7 -17 0
v -6 -17 0
v -7 -18 0
v -8 -18 0
v -8 -17 0
v -7 -17 0
v -8 -18 0
v -9 -18 0
v -9 -17 0
v -8 -17 0
v -9 -18 0
v -10 -18 0
v -10 -17 0
v -9 -17 0
v -16 -18 0
v -17 -18 0
v -17 -17 0
v -16 -17 0
v -17 -18 0
v -18 -18 0
v -18 -17 0
v -17 -17 0
v -18 -18 0
v -19 -18 0
v -19 -17 0
v -18 -17 0
v -19 -18 0
v -20 -18 0
v -20 -17 0
v -19 -17 0
v -20 -18 0
v -21 -18 0
v -21 -17 0
v -20 -17 0
v -21 -18 0
v -22 -18 0
v -22 -17 0
v -21 -17 0
v -22 -18 0
v -23 -18 0
v -23 -17 0
v -22 -17 0
v -23 -18 0
v -24 -18 0
v -24 -17 0
v -23 -17 0
v -24 -18 0
v -25 -18 0
v -25 -17 0
v -24 -17 0
v -25 -18 0
v -26 -18 0
v -26 -17 0
v -25 -17 0
v -26 -18 0
v -27 -18 0
v -27 -17 0
v -26 -17 0
v -27 -18 0
v -28 -18 0
v -28 -17 0
v -27 -17 0
v -6 -19 0
v -7 -19 0
v -7 -18 0
v -6 -18 0
v -24 -19 0
v -25 -19 0
v -25 -18 0
v -24 -18 0
v -25 -19 0
v -26 -19 0
v -26 -18 0
v -25 -18 0
v -26 -19 0
v -27 -19 0
v -27 -18 0
v -26 -18 0
v -27 -19 0
v -28 -19 0
v -28 -18 0
v -27 -18 0
v -6 -20 0
v -7 -20 0
v -7 -19 0
v -6 -19 0
v -24 -20 0
v -25 -20 0
v -25 -19 0
v -24 -19 0
v -25 -20 0
v -26 -20 0
v -26 -19 0
v -25 -19 0
v -26 -20 0
v -27 -20 0
v -27 -19 0
v -26 -19 0
v -27 -20 0
v -28 -20 0
v -28 -19 0
v -27 -19 0
v -6 -21 0
v -7 -21 0
v -7 -20 0
v -6 -20 0
v -24 -21 0
v -25 -21 0
v -25 -20 0
v -24 -20 0
v -25 -21 0
v -26 -21 0
v -26 -20 0
v -25 -20 0
v -26 -21 0
v -27 -21 0
v -27 -20 0
v -26 -20 0
v -27 -21 0
v -28 -21 0
v -28 -20 0
v -27 -20 0
v -6 -22 0
v -7 -22 0
v -7 -21 0
v -6 -21 0
v -24 -22 0
v -25 -22 0
v -25 -21 0
v -24 -21 0
v -25 -22 0
v -26 -22 0
v -26 -21 0
v -25 -21 0
v -26 -22 0
v -27 -22 0
v -27 -21 0
v -26 -21 0
v -27 -22 0
v -28 -22 0
v -28 -21 0
v -27 -21 0
v -6 -23 0
v -7 -23 0
v -7 -22 0
v -6 -22 0
v -7 -23 0
v -8 -23 0
v -8 -22 0
v -7 -22 0
v -8 -23 0
v -9 -23 0
v -9 -22 0
v -8 -22 0
v -24 -23 0
v -25 -23 0
v -25 -22 0
v -24 -22 0
v -25 -23 0
v -26 -23 0
v -26 -22 0
v -25 -22 0
v -26 -23 0
v -27 -23 0
v -27 -22 0
v -26 -22 0
v -27 -23 0
v -28 -23 0
v -28 -22 0
v -27 -22 0
v -7 -24 0
v -8 -24 0
v -8 -23 0
v -7 -23 0
v -8 -24 0
v -9 -24 0
v -9 -23 0
v -8 -23 0
v -9 -24 0
v -10 -24 0
v -10 -23 0
v -9 -23 0
v -10 -24 0
v -11 -24 0
v -11 -23 0
v -10 -23 0
v -18 -24 0
v -19 -24 0
v -19 -23 0
v -18 -23 0
v -19 -24 0
v -20 -24 0
v -20 -23 0
v -19 -23 0
v -20 -24 0
v -21 -24 0
v -21 -23 0
v -20 -23 0
v -21 -24 0
v -22 -24 0
v -22 -23 0
v -21 -23 0
v -22 -24 0
v -23 -24 0
v -23 -23 0
v -22 -23 0
v -23 -24 0
v -24 -24 0
v -24 -23 0
v -23 -23 0
v -24 -24 0
v -25 -24 0
v -25 -23 0
v -24 -23 0
v -25 -24 0
v -26 -24 0
v -26 -23 0
v -25 -23 0
v -26 -24 0
v -27 -24 0
v -27 -23 0
v -26 -23 0
v -27 -24 0
v -28 -24 0
v -28 -23 0
v -27 -23 0
v -7 -25 0
v -8 -25 0
v -8 -24 0
v -7 -24 0
v -8 -25 0
v -9 -25 0
v -9 -24 0
v -8 -24 0
v -9 -25 0
v -10 -25 0
v -10 -24 0
v -9 -24 0
v -10 -25 0
v -11 -25 0
v -11 -24 0
v -10 -24 0
v -11 -25 0
v -12 -25 0
v -12 -24 0
v -11 -24 0
v -18 -25 0
v -19 -25 0
v -19 -24 0
v -18 -24 0
v -19 -25 0
v -20 -25 0
v -20 -24 0
v -19 -24 0
v -20 -25 0
v -21 -25 0
v -21 -24 0
v -20 -24 0
v -21 -25 0
v -22 -25 0
v -22 -24 0
v -21 -24 0
v -22 -25 0
v -23 -25 0
v -23 -24 0
v -22 -24 0
v -23 -25 0
v -24 -25 0
v -24 -24 0
v -23 -24 0
v -24 -25 0
v -25 -25 0
v -25 -24 0
v -24 -24 0
v -25 -25 0
v -26 -25 0
v -26 -24 0
v -25 -24 0
v -26 -25 0
v -27 -25 0
v -27 -24 0
v -26 -24 0
v -27 -25 0
v -28 -25 0
v -28 -24 0
v -27 -24 0
v -7 -26 0
v -8 -26 0
v -8 -25 0
v -7 -25 0
v -8 -26 0
v -9 -26 0
v -9 -25 0
v -8 -25 0
v -9 -26 0
v -10 -26 0
v -10 -25 0
v -9 -25 0
v -10 -26 0
v -11 -26 0
v -11 -25 0
v -10 -25 0
v -11 -26 0
v -12 -26 0
v -12 -25 0
v -11 -25 0
v -18 -26 0
v -19 -26 0
v -19 -25 0
v -18 -25 0
v -19 -26 0
v -20 -26 0
v -20 -25 0
v -19 -25 0
v -20 -26 0
v -21 -26 0
v -21 -25 0
v -20 -25 0
v -21 -26 0
v -22 -26 0
v -22 -25 0
v -21 -25 0
v -22 -26 0
v -23 -26 0
v -23 -25 0
v -22 -25 0
v -23 -26 0
v -24 -26 0
v -24 -25 0
v -23 -25 0
v -24 -26 0
v -25 -26 0
v -25 -25 0
v -24 -25 0
v -25 -26 0
v -26 -26 0
v -26 -25 0
v -25 -25 0
v -26 -26 0
v -27 -26 0
v -27 -25 0
v -26 -25 0
v -27 -26 0
v -28 -26 0
v -28 -25 0
v -27 -25 0
v -11 -27 0
v -12 -27 0
v -12 -26 0
v -11 -26 0
v -18 -27 0
v -19 -27 0
v -19 -26 0
v -18 -26 0
v -11 -28 0
v -12 -28 0
v -12 -27 0
v -11 -27 0
v -18 -28 0
v -19 -28 0
v -19 -27 0
v -18 -27 0

# Texture cooridinates (Count = 28)
vt 0.375 0.7542243
vt 0.5 0.7542243
vt 0.5 0.7557604
vt 0.375 0.7557604
vt 0.625 0.7542243
vt 0.625 0.7557604
vt 0.375 0.7526882
vt 0.5 0.7526882
vt 0.625 0.7526882
vt 0.75 0.7526882
vt 0.75 0.7542243
vt 0.75 0.7557604
vt 0.5 0.751152
vt 0.625 0.751152
vt 0.75 0.751152
vt 0.375 0.751152
vt 0.25 0.7542243
vt 0.25 0.7557604
vt 0 0.7542243
vt 0.125 0.7542243
vt 0.125 0.7557604
vt 0 0.7557604
vt 0.25 0.7526882
vt 0.125 0.751152
vt 0.25 0.751152
vt 0.125 0.7526882
vt 0 0.7526882
vt 0 0.751152

# Normal
vn 0 0 -1

# Mesh description
g CaveMap_mesh_0005

# Faces
f 1/1/1 2/2/1 3/3/1 4/4/1
f 5/2/1 6/5/1 7/6/1 8/3/1
f 9/2/1 10/5/1 11/6/1 12/3/1
f 13/2/1 14/5/1 15/6/1 16/3/1
f 17/2/1 18/5/1 19/6/1 20/3/1
f 21/2/1 22/5/1 23/6/1 24/3/1
f 25/7/1 26/8/1 27/2/1 28/1/1
f 29/8/1 30/9/1 31/5/1 32/2/1
f 33/8/1 34/9/1 35/5/1 36/2/1
f 37/8/1 38/9/1 39/5/1 40/2/1
f 41/8/1 42/9/1 43/5/1 44/2/1
f 45/9/1 46/10/1 47/11/1 48/5/1
f 49/2/1 50/5/1 51/6/1 52/3/1
f 53/5/1 54/11/1 55/12/1 56/6/1
f 57/7/1 58/8/1 59/2/1 60/1/1
f 61/13/1 62/14/1 63/9/1 64/8/1
f 65/13/1 66/14/1 67/9/1 68/8/1
f 69/9/1 70/10/1 71/11/1 72/5/1
f 73/7/1 74/8/1 75/2/1 76/1/1
f 77/7/1 78/8/1 79/2/1 80/1/1
f 81/9/1 82/10/1 83/11/1 84/5/1
f 85/9/1 86/10/1 87/11/1 88/5/1
f 89/14/1 90/15/1 91/10/1 92/9/1
f 93/16/1 94/13/1 95/8/1 96/7/1
f 97/7/1 98/8/1 99/2/1 100/1/1
f 101/7/1 102/8/1 103/2/1 104/1/1
f 105/9/1 106/10/1 107/11/1 108/5/1
f 109/9/1 110/10/1 111/11/1 112/5/1
f 113/14/1 114/15/1 115/10/1 116/9/1
f 117/1/1 118/2/1 119/3/1 120/4/1
f 121/2/1 122/5/1 123/6/1 124/3/1
f 125/7/1 126/8/1 127/2/1 128/1/1
f 129/9/1 130/10/1 131/11/1 132/5/1
f 133/1/1 134/2/1 135/3/1 136/4/1
f 137/2/1 138/5/1 139/6/1 140/3/1
f 141/2/1 142/5/1 143/6/1 144/3/1
f 145/2/1 146/5/1 147/6/1 148/3/1
f 149/2/1 150/5/1 151/6/1 152/3/1
f 153/2/1 154/5/1 155/6/1 156/3/1
f 157/2/1 158/5/1 159/6/1 160/3/1
f 161/16/1 162/13/1 163/8/1 164/7/1
f 165/13/1 166/14/1 167/9/1 168/8/1
f 169/13/1 170/14/1 171/9/1 172/8/1
f 173/14/1 174/15/1 175/10/1 176/9/1
f 177/16/1 178/13/1 179/8/1 180/7/1
f 181/14/1 182/15/1 183/10/1 184/9/1
f 185/16/1 186/13/1 187/8/1 188/7/1
f 189/14/1 190/15/1 191/10/1 192/9/1
f 193/17/1 194/1/1 195/4/1 196/18/1
f 197/19/1 198/20/1 199/21/1 200/22/1
f 201/20/1 202/17/1 203/18/1 204/21/1
f 205/20/1 206/17/1 207/18/1 208/21/1
f 209/20/1 210/17/1 211/18/1 212/21/1
f 213/20/1 214/17/1 215/18/1 216/21/1
f 217/20/1 218/17/1 219/18/1 220/21/1
f 221/17/1 222/1/1 223/4/1 224/18/1
f 225/23/1 226/7/1 227/1/1 228/17/1
f 229/23/1 230/7/1 231/1/1 232/17/1
f 233/19/1 234/20/1 235/21/1 236/22/1
f 237/20/1 238/17/1 239/18/1 240/21/1
f 241/20/1 242/17/1 243/18/1 244/21/1
f 245/20/1 246/17/1 247/18/1 248/21/1
f 249/20/1 250/17/1 251/18/1 252/21/1
f 253/20/1 254/17/1 255/18/1 256/21/1
f 257/20/1 258/17/1 259/18/1 260/21/1
f 261/20/1 262/17/1 263/18/1 264/21/1
f 265/20/1 266/17/1 267/18/1 268/21/1
f 269/20/1 270/17/1 271/18/1 272/21/1
f 273/17/1 274/1/1 275/4/1 276/18/1
f 277/23/1 278/7/1 279/1/1 280/17/1
f 281/23/1 282/7/1 283/1/1 284/17/1
f 285/24/1 286/25/1 287/23/1 288/26/1
f 289/25/1 290/16/1 291/7/1 292/23/1
f 293/27/1 294/26/1 295/20/1 296/19/1
f 297/23/1 298/7/1 299/1/1 300/17/1
f 301/23/1 302/7/1 303/1/1 304/17/1
f 305/23/1 306/7/1 307/1/1 308/17/1
f 309/24/1 310/25/1 311/23/1 312/26/1
f 313/24/1 314/25/1 315/23/1 316/26/1
f 317/27/1 318/26/1 319/20/1 320/19/1
f 321/23/1 322/7/1 323/1/1 324/17/1
f 325/20/1 326/17/1 327/18/1 328/21/1
f 329/20/1 330/17/1 331/18/1 332/21/1
f 333/17/1 334/1/1 335/4/1 336/18/1
f 337/23/1 338/7/1 339/1/1 340/17/1
f 341/23/1 342/7/1 343/1/1 344/17/1
f 345/27/1 346/26/1 347/20/1 348/19/1
f 349/26/1 350/23/1 351/17/1 352/20/1
f 353/26/1 354/23/1 355/17/1 356/20/1
f 357/26/1 358/23/1 359/17/1 360/20/1
f 361/23/1 362/7/1 363/1/1 364/17/1
f 365/23/1 366/7/1 367/1/1 368/17/1
f 369/28/1 370/24/1 371/26/1 372/27/1
f 373/24/1 374/25/1 375/23/1 376/26/1
f 377/25/1 378/16/1 379/7/1 380/23/1
f 381/28/1 382/24/1 383/26/1 384/27/1
f 385/24/1 386/25/1 387/23/1 388/26/1
f 389/24/1 390/25/1 391/23/1 392/26/1
f 393/24/1 394/25/1 395/23/1 396/26/1
f 397/24/1 398/25/1 399/23/1 400/26/1
f 401/24/1 402/25/1 403/23/1 404/26/1
f 405/24/1 406/25/1 407/23/1 408/26/1
f 409/24/1 410/25/1 411/23/1 412/26/1
f 413/24/1 414/25/1 415/23/1 416/26/1
f 417/26/1 418/23/1 419/17/1 420/20/1
f 421/26/1 422/23/1 423/17/1 424/20/1
f 425/23/1 426/7/1 427/1/1 428/17/1
f 429/23/1 430/7/1 431/1/1 432/17/1
f 433/27/1 434/26/1 435/20/1 436/19/1
f 437/26/1 438/23/1 439/17/1 440/20/1
f 441/26/1 442/23/1 443/17/1 444/20/1
f 445/23/1 446/7/1 447/1/1 448/17/1
f 449/23/1 450/7/1 451/1/1 452/17/1
f 453/27/1 454/26/1 455/20/1 456/19/1
f 457/26/1 458/23/1 459/17/1 460/20/1
f 461/26/1 462/23/1 463/17/1 464/20/1
f 465/23/1 466/7/1 467/1/1 468/17/1
f 469/23/1 470/7/1 471/1/1 472/17/1
f 473/27/1 474/26/1 475/20/1 476/19/1
f 477/26/1 478/23/1 479/17/1 480/20/1
f 481/26/1 482/23/1 483/17/1 484/20/1
f 485/23/1 486/7/1 487/1/1 488/17/1
f 489/23/1 490/7/1 491/1/1 492/17/1
f 493/27/1 494/26/1 495/20/1 496/19/1
f 497/26/1 498/23/1 499/17/1 500/20/1
f 501/26/1 502/23/1 503/17/1 504/20/1
f 505/23/1 506/7/1 507/1/1 508/17/1
f 509/23/1 510/7/1 511/1/1 512/17/1
f 513/20/1 514/17/1 515/18/1 516/21/1
f 517/20/1 518/17/1 519/18/1 520/21/1
f 521/27/1 522/26/1 523/20/1 524/19/1
f 525/26/1 526/23/1 527/17/1 528/20/1
f 529/26/1 530/23/1 531/17/1 532/20/1
f 533/23/1 534/7/1 535/1/1 536/17/1
f 537/26/1 538/23/1 539/17/1 540/20/1
f 541/26/1 542/23/1 543/17/1 544/20/1
f 545/20/1 546/17/1 547/18/1 548/21/1
f 549/20/1 550/17/1 551/18/1 552/21/1
f 553/19/1 554/20/1 555/21/1 556/22/1
f 557/20/1 558/17/1 559/18/1 560/21/1
f 561/20/1 562/17/1 563/18/1 564/21/1
f 565/20/1 566/17/1 567/18/1 568/21/1
f 569/20/1 570/17/1 571/18/1 572/21/1
f 573/20/1 574/17/1 575/18/1 576/21/1
f 577/27/1 578/26/1 579/20/1 580/19/1
f 581/26/1 582/23/1 583/17/1 584/20/1
f 585/26/1 586/23/1 587/17/1 588/20/1
f 589/23/1 590/7/1 591/1/1 592/17/1
f 593/26/1 594/23/1 595/17/1 596/20/1
f 597/26/1 598/23/1 599/17/1 600/20/1
f 601/26/1 602/23/1 603/17/1 604/20/1
f 605/26/1 606/23/1 607/17/1 608/20/1
f 609/23/1 610/7/1 611/1/1 612/17/1
f 613/27/1 614/26/1 615/20/1 616/19/1
f 617/26/1 618/23/1 619/17/1 620/20/1
f 621/26/1 622/23/1 623/17/1 624/20/1
f 625/26/1 626/23/1 627/17/1 628/20/1
f 629/26/1 630/23/1 631/17/1 632/20/1
f 633/26/1 634/23/1 635/17/1 636/20/1
f 637/27/1 638/26/1 639/20/1 640/19/1
f 641/26/1 642/23/1 643/17/1 644/20/1
f 645/26/1 646/23/1 647/17/1 648/20/1
f 649/23/1 650/7/1 651/1/1 652/17/1
f 653/26/1 654/23/1 655/17/1 656/20/1
f 657/26/1 658/23/1 659/17/1 660/20/1
f 661/26/1 662/23/1 663/17/1 664/20/1
f 665/26/1 666/23/1 667/17/1 668/20/1
f 669/23/1 670/7/1 671/1/1 672/17/1
f 673/27/1 674/26/1 675/20/1 676/19/1
f 677/26/1 678/23/1 679/17/1 680/20/1
f 681/26/1 682/23/1 683/17/1 684/20/1
f 685/26/1 686/23/1 687/17/1 688/20/1
f 689/26/1 690/23/1 691/17/1 692/20/1
f 693/26/1 694/23/1 695/17/1 696/20/1
f 697/28/1 698/24/1 699/26/1 700/27/1
f 701/24/1 702/25/1 703/23/1 704/26/1
f 705/24/1 706/25/1 707/23/1 708/26/1
f 709/25/1 710/16/1 711/7/1 712/23/1
f 713/23/1 714/7/1 715/1/1 716/17/1
f 717/27/1 718/26/1 719/20/1 720/19/1
f 721/23/1 722/7/1 723/1/1 724/17/1
f 725/27/1 726/26/1 727/20/1 728/19/1

