# Tiled2Unity generated file. Do not modify by hand.
# Wavefront file for 'CaveMap_mesh_0004.obj'

# Vertices (Count = 588)
v -3 -2 0
v -4 -2 0
v -4 -1 0
v -3 -1 0
v -4 -2 0
v -5 -2 0
v -5 -1 0
v -4 -1 0
v -5 -2 0
v -6 -2 0
v -6 -1 0
v -5 -1 0
v -6 -2 0
v -7 -2 0
v -7 -1 0
v -6 -1 0
v -7 -2 0
v -8 -2 0
v -8 -1 0
v -7 -1 0
v -8 -2 0
v -9 -2 0
v -9 -1 0
v -8 -1 0
v -9 -2 0
v -10 -2 0
v -10 -1 0
v -9 -1 0
v -10 -2 0
v -11 -2 0
v -11 -1 0
v -10 -1 0
v -11 -2 0
v -12 -2 0
v -12 -1 0
v -11 -1 0
v -12 -2 0
v -13 -2 0
v -13 -1 0
v -12 -1 0
v -13 -2 0
v -14 -2 0
v -14 -1 0
v -13 -1 0
v -14 -2 0
v -15 -2 0
v -15 -1 0
v -14 -1 0
v -15 -2 0
v -16 -2 0
v -16 -1 0
v -15 -1 0
v -16 -2 0
v -17 -2 0
v -17 -1 0
v -16 -1 0
v -17 -2 0
v -18 -2 0
v -18 -1 0
v -17 -1 0
v -18 -2 0
v -19 -2 0
v -19 -1 0
v -18 -1 0
v -19 -2 0
v -20 -2 0
v -20 -1 0
v -19 -1 0
v -20 -2 0
v -21 -2 0
v -21 -1 0
v -20 -1 0
v -21 -2 0
v -22 -2 0
v -22 -1 0
v -21 -1 0
v -22 -2 0
v -23 -2 0
v -23 -1 0
v -22 -1 0
v -23 -2 0
v -24 -2 0
v -24 -1 0
v -23 -1 0
v -24 -2 0
v -25 -2 0
v -25 -1 0
v -24 -1 0
v -25 -2 0
v -26 -2 0
v -26 -1 0
v -25 -1 0
v -26 -2 0
v -27 -2 0
v -27 -1 0
v -26 -1 0
v -27 -2 0
v -28 -2 0
v -28 -1 0
v -27 -1 0
v -3 -3 0
v -4 -3 0
v -4 -2 0
v -3 -2 0
v -4 -3 0
v -5 -3 0
v -5 -2 0
v -4 -2 0
v -23 -3 0
v -24 -3 0
v -24 -2 0
v -23 -2 0
v -24 -3 0
v -25 -3 0
v -25 -2 0
v -24 -2 0
v -25 -3 0
v -26 -3 0
v -26 -2 0
v -25 -2 0
v -26 -3 0
v -27 -3 0
v -27 -2 0
v -26 -2 0
v -27 -3 0
v -28 -3 0
v -28 -2 0
v -27 -2 0
v -3 -4 0
v -4 -4 0
v -4 -3 0
v -3 -3 0
v -4 -4 0
v -5 -4 0
v -5 -3 0
v -4 -3 0
v -10 -4 0
v -11 -4 0
v -11 -3 0
v -10 -3 0
v -11 -4 0
v -12 -4 0
v -12 -3 0
v -11 -3 0
v -12 -4 0
v -13 -4 0
v -13 -3 0
v -12 -3 0
v -13 -4 0
v -14 -4 0
v -14 -3 0
v -13 -3 0
v -14 -4 0
v -15 -4 0
v -15 -3 0
v -14 -3 0
v -15 -4 0
v -16 -4 0
v -16 -3 0
v -15 -3 0
v -16 -4 0
v -17 -4 0
v -17 -3 0
v -16 -3 0
v -17 -4 0
v -18 -4 0
v -18 -3 0
v -17 -3 0
v -18 -4 0
v -19 -4 0
v -19 -3 0
v -18 -3 0
v -19 -4 0
v -20 -4 0
v -20 -3 0
v -19 -3 0
v -20 -4 0
v -21 -4 0
v -21 -3 0
v -20 -3 0
v -21 -4 0
v -22 -4 0
v -22 -3 0
v -21 -3 0
v -22 -4 0
v -23 -4 0
v -23 -3 0
v -22 -3 0
v -23 -4 0
v -24 -4 0
v -24 -3 0
v -23 -3 0
v -24 -4 0
v -25 -4 0
v -25 -3 0
v -24 -3 0
v -25 -4 0
v -26 -4 0
v -26 -3 0
v -25 -3 0
v -28 -4 0
v -29 -4 0
v -29 -3 0
v -28 -3 0
v -3 -5 0
v -4 -5 0
v -4 -4 0
v -3 -4 0
v -4 -5 0
v -5 -5 0
v -5 -4 0
v -4 -4 0
v -9 -5 0
v -10 -5 0
v -10 -4 0
v -9 -4 0
v -26 -5 0
v -27 -5 0
v -27 -4 0
v -26 -4 0
v -28 -5 0
v -29 -5 0
v -29 -4 0
v -28 -4 0
v -3 -6 0
v -4 -6 0
v -4 -5 0
v -3 -5 0
v -4 -6 0
v -5 -6 0
v -5 -5 0
v -4 -5 0
v -8 -6 0
v -9 -6 0
v -9 -5 0
v -8 -5 0
v -26 -6 0
v -27 -6 0
v -27 -5 0
v -26 -5 0
v -28 -6 0
v -29 -6 0
v -29 -5 0
v -28 -5 0
v -3 -7 0
v -4 -7 0
v -4 -6 0
v -3 -6 0
v -4 -7 0
v -5 -7 0
v -5 -6 0
v -4 -6 0
v -8 -7 0
v -9 -7 0
v -9 -6 0
v -8 -6 0
v -25 -7 0
v -26 -7 0
v -26 -6 0
v -25 -6 0
v -28 -7 0
v -29 -7 0
v -29 -6 0
v -28 -6 0
v -3 -8 0
v -4 -8 0
v -4 -7 0
v -3 -7 0
v -4 -8 0
v -5 -8 0
v -5 -7 0
v -4 -7 0
v -8 -8 0
v -9 -8 0
v -9 -7 0
v -8 -7 0
v -19 -8 0
v -20 -8 0
v -20 -7 0
v -19 -7 0
v -28 -8 0
v -29 -8 0
v -29 -7 0
v -28 -7 0
v -3 -9 0
v -4 -9 0
v -4 -8 0
v -3 -8 0
v -4 -9 0
v -5 -9 0
v -5 -8 0
v -4 -8 0
v -8 -9 0
v -9 -9 0
v -9 -8 0
v -8 -8 0
v -19 -9 0
v -20 -9 0
v -20 -8 0
v -19 -8 0
v -28 -9 0
v -29 -9 0
v -29 -8 0
v -28 -8 0
v -3 -10 0
v -4 -10 0
v -4 -9 0
v -3 -9 0
v -4 -10 0
v -5 -10 0
v -5 -9 0
v -4 -9 0
v -8 -10 0
v -9 -10 0
v -9 -9 0
v -8 -9 0
v -19 -10 0
v -20 -10 0
v -20 -9 0
v -19 -9 0
v -28 -10 0
v -29 -10 0
v -29 -9 0
v -28 -9 0
v -4 -11 0
v -5 -11 0
v -5 -10 0
v -4 -10 0
v -5 -11 0
v -6 -11 0
v -6 -10 0
v -5 -10 0
v -6 -11 0
v -7 -11 0
v -7 -10 0
v -6 -10 0
v -7 -11 0
v -8 -11 0
v -8 -10 0
v -7 -10 0
v -20 -11 0
v -21 -11 0
v -21 -10 0
v -20 -10 0
v -21 -11 0
v -22 -11 0
v -22 -10 0
v -21 -10 0
v -22 -11 0
v -23 -11 0
v -23 -10 0
v -22 -10 0
v -23 -11 0
v -24 -11 0
v -24 -10 0
v -23 -10 0
v -24 -11 0
v -25 -11 0
v -25 -10 0
v -24 -10 0
v -25 -11 0
v -26 -11 0
v -26 -10 0
v -25 -10 0
v -26 -11 0
v -27 -11 0
v -27 -10 0
v -26 -10 0
v -27 -11 0
v -28 -11 0
v -28 -10 0
v -27 -10 0
v -12 -16 0
v -13 -16 0
v -13 -15 0
v -12 -15 0
v -13 -16 0
v -14 -16 0
v -14 -15 0
v -13 -15 0
v -10 -17 0
v -11 -17 0
v -11 -16 0
v -10 -16 0
v -11 -17 0
v -12 -17 0
v -12 -16 0
v -11 -16 0
v -14 -17 0
v -15 -17 0
v -15 -16 0
v -14 -16 0
v -15 -17 0
v -16 -17 0
v -16 -16 0
v -15 -16 0
v -15 -18 0
v -16 -18 0
v -16 -17 0
v -15 -17 0
v -4 -19 0
v -5 -19 0
v -5 -18 0
v -4 -18 0
v -5 -19 0
v -6 -19 0
v -6 -18 0
v -5 -18 0
v -7 -19 0
v -8 -19 0
v -8 -18 0
v -7 -18 0
v -8 -19 0
v -9 -19 0
v -9 -18 0
v -8 -18 0
v -9 -19 0
v -10 -19 0
v -10 -18 0
v -9 -18 0
v -16 -19 0
v -17 -19 0
v -17 -18 0
v -16 -18 0
v -17 -19 0
v -18 -19 0
v -18 -18 0
v -17 -18 0
v -18 -19 0
v -19 -19 0
v -19 -18 0
v -18 -18 0
v -19 -19 0
v -20 -19 0
v -20 -18 0
v -19 -18 0
v -20 -19 0
v -21 -19 0
v -21 -18 0
v -20 -18 0
v -21 -19 0
v -22 -19 0
v -22 -18 0
v -21 -18 0
v -22 -19 0
v -23 -19 0
v -23 -18 0
v -22 -18 0
v -23 -19 0
v -24 -19 0
v -24 -18 0
v -23 -18 0
v -7 -20 0
v -8 -20 0
v -8 -19 0
v -7 -19 0
v -23 -20 0
v -24 -20 0
v -24 -19 0
v -23 -19 0
v -4 -21 0
v -5 -21 0
v -5 -20 0
v -4 -20 0
v -7 -21 0
v -8 -21 0
v -8 -20 0
v -7 -20 0
v -23 -21 0
v -24 -21 0
v -24 -20 0
v -23 -20 0
v -7 -22 0
v -8 -22 0
v -8 -21 0
v -7 -21 0
v -23 -22 0
v -24 -22 0
v -24 -21 0
v -23 -21 0
v -7 -23 0
v -8 -23 0
v -8 -22 0
v -7 -22 0
v -9 -23 0
v -10 -23 0
v -10 -22 0
v -9 -22 0
v -23 -23 0
v -24 -23 0
v -24 -22 0
v -23 -22 0
v -6 -24 0
v -7 -24 0
v -7 -23 0
v -6 -23 0
v -7 -24 0
v -8 -24 0
v -8 -23 0
v -7 -23 0
v -9 -24 0
v -10 -24 0
v -10 -23 0
v -9 -23 0
v -11 -24 0
v -12 -24 0
v -12 -23 0
v -11 -23 0
v -23 -24 0
v -24 -24 0
v -24 -23 0
v -23 -23 0
v -7 -25 0
v -8 -25 0
v -8 -24 0
v -7 -24 0
v -23 -25 0
v -24 -25 0
v -24 -24 0
v -23 -24 0
v -7 -26 0
v -8 -26 0
v -8 -25 0
v -7 -25 0
v -8 -26 0
v -9 -26 0
v -9 -25 0
v -8 -25 0
v -9 -26 0
v -10 -26 0
v -10 -25 0
v -9 -25 0
v -10 -26 0
v -11 -26 0
v -11 -25 0
v -10 -25 0
v -11 -26 0
v -12 -26 0
v -12 -25 0
v -11 -25 0
v -12 -26 0
v -13 -26 0
v -13 -25 0
v -12 -25 0
v -13 -26 0
v -14 -26 0
v -14 -25 0
v -13 -25 0
v -14 -26 0
v -15 -26 0
v -15 -25 0
v -14 -25 0
v -15 -26 0
v -16 -26 0
v -16 -25 0
v -15 -25 0
v -16 -26 0
v -17 -26 0
v -17 -25 0
v -16 -25 0
v -17 -26 0
v -18 -26 0
v -18 -25 0
v -17 -25 0
v -18 -26 0
v -19 -26 0
v -19 -25 0
v -18 -25 0
v -19 -26 0
v -20 -26 0
v -20 -25 0
v -19 -25 0
v -20 -26 0
v -21 -26 0
v -21 -25 0
v -20 -25 0
v -21 -26 0
v -22 -26 0
v -22 -25 0
v -21 -25 0
v -22 -26 0
v -23 -26 0
v -23 -25 0
v -22 -25 0
v -23 -26 0
v -24 -26 0
v -24 -25 0
v -23 -25 0

# Texture cooridinates (Count = 29)
vt 0.375 0.7542243
vt 0.5 0.7542243
vt 0.5 0.7557604
vt 0.375 0.7557604
vt 0.625 0.7542243
vt 0.625 0.7557604
vt 0.75 0.7542243
vt 0.75 0.7557604
vt 0.375 0.7526882
vt 0.5 0.7526882
vt 0.625 0.7526882
vt 0.75 0.7526882
vt 0.5 0.751152
vt 0.625 0.751152
vt 0.125 0.751152
vt 0.25 0.751152
vt 0.25 0.7526882
vt 0.125 0.7526882
vt 0 0.7526882
vt 0.125 0.7542243
vt 0 0.7542243
vt 0.25 0.7542243
vt 0.25 0.7557604
vt 0.375 0.751152
vt 0.125 0.7557604
vt 0.5 0.7880185
vt 0.625 0.7880185
vt 0.625 0.7895545
vt 0.5 0.7895545

# Normal
vn 0 0 -1

# Mesh description
g CaveMap_mesh_0004

# Faces
f 1/1/1 2/2/1 3/3/1 4/4/1
f 5/2/1 6/5/1 7/6/1 8/3/1
f 9/2/1 10/5/1 11/6/1 12/3/1
f 13/2/1 14/5/1 15/6/1 16/3/1
f 17/2/1 18/5/1 19/6/1 20/3/1
f 21/2/1 22/5/1 23/6/1 24/3/1
f 25/2/1 26/5/1 27/6/1 28/3/1
f 29/2/1 30/5/1 31/6/1 32/3/1
f 33/2/1 34/5/1 35/6/1 36/3/1
f 37/2/1 38/5/1 39/6/1 40/3/1
f 41/2/1 42/5/1 43/6/1 44/3/1
f 45/2/1 46/5/1 47/6/1 48/3/1
f 49/2/1 50/5/1 51/6/1 52/3/1
f 53/2/1 54/5/1 55/6/1 56/3/1
f 57/2/1 58/5/1 59/6/1 60/3/1
f 61/2/1 62/5/1 63/6/1 64/3/1
f 65/2/1 66/5/1 67/6/1 68/3/1
f 69/2/1 70/5/1 71/6/1 72/3/1
f 73/2/1 74/5/1 75/6/1 76/3/1
f 77/2/1 78/5/1 79/6/1 80/3/1
f 81/2/1 82/5/1 83/6/1 84/3/1
f 85/2/1 86/5/1 87/6/1 88/3/1
f 89/2/1 90/5/1 91/6/1 92/3/1
f 93/2/1 94/5/1 95/6/1 96/3/1
f 97/5/1 98/7/1 99/8/1 100/6/1
f 101/9/1 102/10/1 103/2/1 104/1/1
f 105/10/1 106/11/1 107/5/1 108/2/1
f 109/10/1 110/11/1 111/5/1 112/2/1
f 113/10/1 114/11/1 115/5/1 116/2/1
f 117/10/1 118/11/1 119/5/1 120/2/1
f 121/10/1 122/11/1 123/5/1 124/2/1
f 125/11/1 126/12/1 127/7/1 128/5/1
f 129/9/1 130/10/1 131/2/1 132/1/1
f 133/10/1 134/11/1 135/5/1 136/2/1
f 137/13/1 138/14/1 139/11/1 140/10/1
f 141/13/1 142/14/1 143/11/1 144/10/1
f 145/13/1 146/14/1 147/11/1 148/10/1
f 149/13/1 150/14/1 151/11/1 152/10/1
f 153/13/1 154/14/1 155/11/1 156/10/1
f 157/13/1 158/14/1 159/11/1 160/10/1
f 161/13/1 162/14/1 163/11/1 164/10/1
f 165/13/1 166/14/1 167/11/1 168/10/1
f 169/13/1 170/14/1 171/11/1 172/10/1
f 173/13/1 174/14/1 175/11/1 176/10/1
f 177/13/1 178/14/1 179/11/1 180/10/1
f 181/13/1 182/14/1 183/11/1 184/10/1
f 185/13/1 186/14/1 187/11/1 188/10/1
f 189/13/1 190/14/1 191/11/1 192/10/1
f 193/13/1 194/14/1 195/11/1 196/10/1
f 197/13/1 198/14/1 199/11/1 200/10/1
f 201/11/1 202/12/1 203/7/1 204/5/1
f 205/9/1 206/10/1 207/2/1 208/1/1
f 209/10/1 210/11/1 211/5/1 212/2/1
f 213/13/1 214/14/1 215/11/1 216/10/1
f 217/13/1 218/14/1 219/11/1 220/10/1
f 221/11/1 222/12/1 223/7/1 224/5/1
f 225/9/1 226/10/1 227/2/1 228/1/1
f 229/10/1 230/11/1 231/5/1 232/2/1
f 233/13/1 234/14/1 235/11/1 236/10/1
f 237/9/1 238/10/1 239/2/1 240/1/1
f 241/11/1 242/12/1 243/7/1 244/5/1
f 245/9/1 246/10/1 247/2/1 248/1/1
f 249/10/1 250/11/1 251/5/1 252/2/1
f 253/11/1 254/12/1 255/7/1 256/5/1
f 257/9/1 258/10/1 259/2/1 260/1/1
f 261/11/1 262/12/1 263/7/1 264/5/1
f 265/9/1 266/10/1 267/2/1 268/1/1
f 269/10/1 270/11/1 271/5/1 272/2/1
f 273/11/1 274/12/1 275/7/1 276/5/1
f 277/9/1 278/10/1 279/2/1 280/1/1
f 281/11/1 282/12/1 283/7/1 284/5/1
f 285/9/1 286/10/1 287/2/1 288/1/1
f 289/10/1 290/11/1 291/5/1 292/2/1
f 293/11/1 294/12/1 295/7/1 296/5/1
f 297/9/1 298/10/1 299/2/1 300/1/1
f 301/11/1 302/12/1 303/7/1 304/5/1
f 305/9/1 306/10/1 307/2/1 308/1/1
f 309/10/1 310/11/1 311/5/1 312/2/1
f 313/11/1 314/12/1 315/7/1 316/5/1
f 317/9/1 318/10/1 319/2/1 320/1/1
f 321/11/1 322/12/1 323/7/1 324/5/1
f 325/13/1 326/14/1 327/11/1 328/10/1
f 329/13/1 330/14/1 331/11/1 332/10/1
f 333/13/1 334/14/1 335/11/1 336/10/1
f 337/13/1 338/14/1 339/11/1 340/10/1
f 341/13/1 342/14/1 343/11/1 344/10/1
f 345/13/1 346/14/1 347/11/1 348/10/1
f 349/13/1 350/14/1 351/11/1 352/10/1
f 353/13/1 354/14/1 355/11/1 356/10/1
f 357/13/1 358/14/1 359/11/1 360/10/1
f 361/13/1 362/14/1 363/11/1 364/10/1
f 365/13/1 366/14/1 367/11/1 368/10/1
f 369/13/1 370/14/1 371/11/1 372/10/1
f 373/15/1 374/16/1 375/17/1 376/18/1
f 377/15/1 378/16/1 379/17/1 380/18/1
f 381/15/1 382/16/1 383/17/1 384/18/1
f 385/15/1 386/16/1 387/17/1 388/18/1
f 389/15/1 390/16/1 391/17/1 392/18/1
f 393/19/1 394/18/1 395/20/1 396/21/1
f 397/19/1 398/18/1 399/20/1 400/21/1
f 401/2/1 402/5/1 403/6/1 404/3/1
f 405/5/1 406/7/1 407/8/1 408/6/1
f 409/15/1 410/16/1 411/17/1 412/18/1
f 413/15/1 414/16/1 415/17/1 416/18/1
f 417/15/1 418/16/1 419/17/1 420/18/1
f 421/15/1 422/16/1 423/17/1 424/18/1
f 425/15/1 426/16/1 427/17/1 428/18/1
f 429/15/1 430/16/1 431/17/1 432/18/1
f 433/15/1 434/16/1 435/17/1 436/18/1
f 437/15/1 438/16/1 439/17/1 440/18/1
f 441/15/1 442/16/1 443/17/1 444/18/1
f 445/15/1 446/16/1 447/17/1 448/18/1
f 449/19/1 450/18/1 451/20/1 452/21/1
f 453/17/1 454/9/1 455/1/1 456/22/1
f 457/19/1 458/18/1 459/20/1 460/21/1
f 461/11/1 462/12/1 463/7/1 464/5/1
f 465/17/1 466/9/1 467/1/1 468/22/1
f 469/19/1 470/18/1 471/20/1 472/21/1
f 473/17/1 474/9/1 475/1/1 476/22/1
f 477/19/1 478/18/1 479/20/1 480/21/1
f 481/17/1 482/9/1 483/1/1 484/22/1
f 485/22/1 486/1/1 487/4/1 488/23/1
f 489/19/1 490/18/1 491/20/1 492/21/1
f 493/16/1 494/24/1 495/9/1 496/17/1
f 497/17/1 498/9/1 499/1/1 500/22/1
f 501/17/1 502/9/1 503/1/1 504/22/1
f 505/22/1 506/1/1 507/4/1 508/23/1
f 509/19/1 510/18/1 511/20/1 512/21/1
f 513/17/1 514/9/1 515/1/1 516/22/1
f 517/19/1 518/18/1 519/20/1 520/21/1
f 521/20/1 522/22/1 523/23/1 524/25/1
f 525/20/1 526/22/1 527/23/1 528/25/1
f 529/20/1 530/22/1 531/23/1 532/25/1
f 533/20/1 534/22/1 535/23/1 536/25/1
f 537/26/1 538/27/1 539/28/1 540/29/1
f 541/26/1 542/27/1 543/28/1 544/29/1
f 545/26/1 546/27/1 547/28/1 548/29/1
f 549/26/1 550/27/1 551/28/1 552/29/1
f 553/26/1 554/27/1 555/28/1 556/29/1
f 557/26/1 558/27/1 559/28/1 560/29/1
f 561/26/1 562/27/1 563/28/1 564/29/1
f 565/26/1 566/27/1 567/28/1 568/29/1
f 569/20/1 570/22/1 571/23/1 572/25/1
f 573/20/1 574/22/1 575/23/1 576/25/1
f 577/20/1 578/22/1 579/23/1 580/25/1
f 581/20/1 582/22/1 583/23/1 584/25/1
f 585/20/1 586/22/1 587/23/1 588/25/1

