# Tiled2Unity generated file. Do not modify by hand.
# Wavefront file for 'Main_City_mesh_0007.obj'

# Vertices (Count = 980)
v -4 -1 0
v -5 -1 0
v -5 0 0
v -4 0 0
v -3 -1 0
v -4 -1 0
v -4 0 0
v -3 0 0
v -2 -1 0
v -3 -1 0
v -3 0 0
v -2 0 0
v -1 -1 0
v -2 -1 0
v -2 0 0
v -1 0 0
v 0 -1 0
v -1 -1 0
v -1 0 0
v 0 0 0
v -4 -2 0
v -5 -2 0
v -5 -1 0
v -4 -1 0
v -3 -2 0
v -4 -2 0
v -4 -1 0
v -3 -1 0
v -2 -2 0
v -3 -2 0
v -3 -1 0
v -2 -1 0
v -1 -2 0
v -2 -2 0
v -2 -1 0
v -1 -1 0
v 0 -2 0
v -1 -2 0
v -1 -1 0
v 0 -1 0
v -4 -3 0
v -5 -3 0
v -5 -2 0
v -4 -2 0
v -3 -3 0
v -4 -3 0
v -4 -2 0
v -3 -2 0
v -2 -3 0
v -3 -3 0
v -3 -2 0
v -2 -2 0
v -1 -3 0
v -2 -3 0
v -2 -2 0
v -1 -2 0
v 0 -3 0
v -1 -3 0
v -1 -2 0
v 0 -2 0
v -4 -4 0
v -5 -4 0
v -5 -3 0
v -4 -3 0
v -3 -4 0
v -4 -4 0
v -4 -3 0
v -3 -3 0
v -2 -4 0
v -3 -4 0
v -3 -3 0
v -2 -3 0
v -1 -4 0
v -2 -4 0
v -2 -3 0
v -1 -3 0
v 0 -4 0
v -1 -4 0
v -1 -3 0
v 0 -3 0
v -4 -5 0
v -5 -5 0
v -5 -4 0
v -4 -4 0
v -3 -5 0
v -4 -5 0
v -4 -4 0
v -3 -4 0
v -2 -5 0
v -3 -5 0
v -3 -4 0
v -2 -4 0
v -1 -5 0
v -2 -5 0
v -2 -4 0
v -1 -4 0
v 0 -5 0
v -1 -5 0
v -1 -4 0
v 0 -4 0
v -4 -6 0
v -5 -6 0
v -5 -5 0
v -4 -5 0
v -3 -6 0
v -4 -6 0
v -4 -5 0
v -3 -5 0
v -2 -6 0
v -3 -6 0
v -3 -5 0
v -2 -5 0
v -1 -6 0
v -2 -6 0
v -2 -5 0
v -1 -5 0
v 0 -6 0
v -1 -6 0
v -1 -5 0
v 0 -5 0
v -4 -7 0
v -5 -7 0
v -5 -6 0
v -4 -6 0
v -3 -7 0
v -4 -7 0
v -4 -6 0
v -3 -6 0
v -2 -7 0
v -3 -7 0
v -3 -6 0
v -2 -6 0
v -1 -7 0
v -2 -7 0
v -2 -6 0
v -1 -6 0
v 0 -7 0
v -1 -7 0
v -1 -6 0
v 0 -6 0
v -4 -8 0
v -5 -8 0
v -5 -7 0
v -4 -7 0
v -3 -8 0
v -4 -8 0
v -4 -7 0
v -3 -7 0
v -2 -8 0
v -3 -8 0
v -3 -7 0
v -2 -7 0
v -1 -8 0
v -2 -8 0
v -2 -7 0
v -1 -7 0
v 0 -8 0
v -1 -8 0
v -1 -7 0
v 0 -7 0
v -4 -9 0
v -5 -9 0
v -5 -8 0
v -4 -8 0
v -3 -9 0
v -4 -9 0
v -4 -8 0
v -3 -8 0
v -2 -9 0
v -3 -9 0
v -3 -8 0
v -2 -8 0
v -1 -9 0
v -2 -9 0
v -2 -8 0
v -1 -8 0
v 0 -9 0
v -1 -9 0
v -1 -8 0
v 0 -8 0
v -4 -10 0
v -5 -10 0
v -5 -9 0
v -4 -9 0
v -3 -10 0
v -4 -10 0
v -4 -9 0
v -3 -9 0
v -2 -10 0
v -3 -10 0
v -3 -9 0
v -2 -9 0
v -1 -10 0
v -2 -10 0
v -2 -9 0
v -1 -9 0
v 0 -10 0
v -1 -10 0
v -1 -9 0
v 0 -9 0
v -4 -11 0
v -5 -11 0
v -5 -10 0
v -4 -10 0
v -3 -11 0
v -4 -11 0
v -4 -10 0
v -3 -10 0
v -2 -11 0
v -3 -11 0
v -3 -10 0
v -2 -10 0
v -1 -11 0
v -2 -11 0
v -2 -10 0
v -1 -10 0
v 0 -11 0
v -1 -11 0
v -1 -10 0
v 0 -10 0
v -4 -12 0
v -5 -12 0
v -5 -11 0
v -4 -11 0
v -3 -12 0
v -4 -12 0
v -4 -11 0
v -3 -11 0
v -2 -12 0
v -3 -12 0
v -3 -11 0
v -2 -11 0
v -1 -12 0
v -2 -12 0
v -2 -11 0
v -1 -11 0
v 0 -12 0
v -1 -12 0
v -1 -11 0
v 0 -11 0
v -4 -13 0
v -5 -13 0
v -5 -12 0
v -4 -12 0
v -3 -13 0
v -4 -13 0
v -4 -12 0
v -3 -12 0
v -2 -13 0
v -3 -13 0
v -3 -12 0
v -2 -12 0
v -1 -13 0
v -2 -13 0
v -2 -12 0
v -1 -12 0
v 0 -13 0
v -1 -13 0
v -1 -12 0
v 0 -12 0
v -4 -14 0
v -5 -14 0
v -5 -13 0
v -4 -13 0
v -3 -14 0
v -4 -14 0
v -4 -13 0
v -3 -13 0
v -2 -14 0
v -3 -14 0
v -3 -13 0
v -2 -13 0
v -1 -14 0
v -2 -14 0
v -2 -13 0
v -1 -13 0
v 0 -14 0
v -1 -14 0
v -1 -13 0
v 0 -13 0
v -4 -15 0
v -5 -15 0
v -5 -14 0
v -4 -14 0
v -3 -15 0
v -4 -15 0
v -4 -14 0
v -3 -14 0
v -2 -15 0
v -3 -15 0
v -3 -14 0
v -2 -14 0
v -1 -15 0
v -2 -15 0
v -2 -14 0
v -1 -14 0
v 0 -15 0
v -1 -15 0
v -1 -14 0
v 0 -14 0
v -4 -16 0
v -5 -16 0
v -5 -15 0
v -4 -15 0
v -3 -16 0
v -4 -16 0
v -4 -15 0
v -3 -15 0
v -2 -16 0
v -3 -16 0
v -3 -15 0
v -2 -15 0
v -1 -16 0
v -2 -16 0
v -2 -15 0
v -1 -15 0
v 0 -16 0
v -1 -16 0
v -1 -15 0
v 0 -15 0
v -4 -17 0
v -5 -17 0
v -5 -16 0
v -4 -16 0
v -3 -17 0
v -4 -17 0
v -4 -16 0
v -3 -16 0
v -2 -17 0
v -3 -17 0
v -3 -16 0
v -2 -16 0
v -1 -17 0
v -2 -17 0
v -2 -16 0
v -1 -16 0
v 0 -17 0
v -1 -17 0
v -1 -16 0
v 0 -16 0
v -4 -18 0
v -5 -18 0
v -5 -17 0
v -4 -17 0
v -3 -18 0
v -4 -18 0
v -4 -17 0
v -3 -17 0
v -2 -18 0
v -3 -18 0
v -3 -17 0
v -2 -17 0
v -1 -18 0
v -2 -18 0
v -2 -17 0
v -1 -17 0
v 0 -18 0
v -1 -18 0
v -1 -17 0
v 0 -17 0
v -4 -19 0
v -5 -19 0
v -5 -18 0
v -4 -18 0
v -3 -19 0
v -4 -19 0
v -4 -18 0
v -3 -18 0
v -2 -19 0
v -3 -19 0
v -3 -18 0
v -2 -18 0
v -1 -19 0
v -2 -19 0
v -2 -18 0
v -1 -18 0
v 0 -19 0
v -1 -19 0
v -1 -18 0
v 0 -18 0
v -4 -20 0
v -5 -20 0
v -5 -19 0
v -4 -19 0
v -3 -20 0
v -4 -20 0
v -4 -19 0
v -3 -19 0
v -2 -20 0
v -3 -20 0
v -3 -19 0
v -2 -19 0
v -1 -20 0
v -2 -20 0
v -2 -19 0
v -1 -19 0
v 0 -20 0
v -1 -20 0
v -1 -19 0
v 0 -19 0
v -4 -21 0
v -5 -21 0
v -5 -20 0
v -4 -20 0
v -3 -21 0
v -4 -21 0
v -4 -20 0
v -3 -20 0
v -2 -21 0
v -3 -21 0
v -3 -20 0
v -2 -20 0
v -1 -21 0
v -2 -21 0
v -2 -20 0
v -1 -20 0
v 0 -21 0
v -1 -21 0
v -1 -20 0
v 0 -20 0
v -4 -22 0
v -5 -22 0
v -5 -21 0
v -4 -21 0
v -3 -22 0
v -4 -22 0
v -4 -21 0
v -3 -21 0
v -2 -22 0
v -3 -22 0
v -3 -21 0
v -2 -21 0
v -1 -22 0
v -2 -22 0
v -2 -21 0
v -1 -21 0
v 0 -22 0
v -1 -22 0
v -1 -21 0
v 0 -21 0
v -4 -23 0
v -5 -23 0
v -5 -22 0
v -4 -22 0
v -3 -23 0
v -4 -23 0
v -4 -22 0
v -3 -22 0
v -2 -23 0
v -3 -23 0
v -3 -22 0
v -2 -22 0
v -1 -23 0
v -2 -23 0
v -2 -22 0
v -1 -22 0
v 0 -23 0
v -1 -23 0
v -1 -22 0
v 0 -22 0
v -4 -24 0
v -5 -24 0
v -5 -23 0
v -4 -23 0
v -3 -24 0
v -4 -24 0
v -4 -23 0
v -3 -23 0
v -2 -24 0
v -3 -24 0
v -3 -23 0
v -2 -23 0
v -1 -24 0
v -2 -24 0
v -2 -23 0
v -1 -23 0
v 0 -24 0
v -1 -24 0
v -1 -23 0
v 0 -23 0
v -4 -25 0
v -5 -25 0
v -5 -24 0
v -4 -24 0
v -3 -25 0
v -4 -25 0
v -4 -24 0
v -3 -24 0
v -2 -25 0
v -3 -25 0
v -3 -24 0
v -2 -24 0
v -1 -25 0
v -2 -25 0
v -2 -24 0
v -1 -24 0
v 0 -25 0
v -1 -25 0
v -1 -24 0
v 0 -24 0
v -4 -26 0
v -5 -26 0
v -5 -25 0
v -4 -25 0
v -3 -26 0
v -4 -26 0
v -4 -25 0
v -3 -25 0
v -2 -26 0
v -3 -26 0
v -3 -25 0
v -2 -25 0
v -1 -26 0
v -2 -26 0
v -2 -25 0
v -1 -25 0
v 0 -26 0
v -1 -26 0
v -1 -25 0
v 0 -25 0
v -4 -27 0
v -5 -27 0
v -5 -26 0
v -4 -26 0
v -3 -27 0
v -4 -27 0
v -4 -26 0
v -3 -26 0
v -2 -27 0
v -3 -27 0
v -3 -26 0
v -2 -26 0
v -1 -27 0
v -2 -27 0
v -2 -26 0
v -1 -26 0
v 0 -27 0
v -1 -27 0
v -1 -26 0
v 0 -26 0
v -4 -28 0
v -5 -28 0
v -5 -27 0
v -4 -27 0
v -3 -28 0
v -4 -28 0
v -4 -27 0
v -3 -27 0
v -2 -28 0
v -3 -28 0
v -3 -27 0
v -2 -27 0
v -1 -28 0
v -2 -28 0
v -2 -27 0
v -1 -27 0
v 0 -28 0
v -1 -28 0
v -1 -27 0
v 0 -27 0
v -4 -29 0
v -5 -29 0
v -5 -28 0
v -4 -28 0
v -3 -29 0
v -4 -29 0
v -4 -28 0
v -3 -28 0
v -2 -29 0
v -3 -29 0
v -3 -28 0
v -2 -28 0
v -1 -29 0
v -2 -29 0
v -2 -28 0
v -1 -28 0
v 0 -29 0
v -1 -29 0
v -1 -28 0
v 0 -28 0
v -4 -30 0
v -5 -30 0
v -5 -29 0
v -4 -29 0
v -3 -30 0
v -4 -30 0
v -4 -29 0
v -3 -29 0
v -2 -30 0
v -3 -30 0
v -3 -29 0
v -2 -29 0
v -1 -30 0
v -2 -30 0
v -2 -29 0
v -1 -29 0
v 0 -30 0
v -1 -30 0
v -1 -29 0
v 0 -29 0
v -4 -31 0
v -5 -31 0
v -5 -30 0
v -4 -30 0
v -3 -31 0
v -4 -31 0
v -4 -30 0
v -3 -30 0
v -2 -31 0
v -3 -31 0
v -3 -30 0
v -2 -30 0
v -1 -31 0
v -2 -31 0
v -2 -30 0
v -1 -30 0
v 0 -31 0
v -1 -31 0
v -1 -30 0
v 0 -30 0
v -4 -32 0
v -5 -32 0
v -5 -31 0
v -4 -31 0
v -3 -32 0
v -4 -32 0
v -4 -31 0
v -3 -31 0
v -2 -32 0
v -3 -32 0
v -3 -31 0
v -2 -31 0
v -1 -32 0
v -2 -32 0
v -2 -31 0
v -1 -31 0
v 0 -32 0
v -1 -32 0
v -1 -31 0
v 0 -31 0
v -4 -33 0
v -5 -33 0
v -5 -32 0
v -4 -32 0
v -3 -33 0
v -4 -33 0
v -4 -32 0
v -3 -32 0
v -2 -33 0
v -3 -33 0
v -3 -32 0
v -2 -32 0
v -1 -33 0
v -2 -33 0
v -2 -32 0
v -1 -32 0
v 0 -33 0
v -1 -33 0
v -1 -32 0
v 0 -32 0
v -4 -34 0
v -5 -34 0
v -5 -33 0
v -4 -33 0
v -3 -34 0
v -4 -34 0
v -4 -33 0
v -3 -33 0
v -2 -34 0
v -3 -34 0
v -3 -33 0
v -2 -33 0
v -1 -34 0
v -2 -34 0
v -2 -33 0
v -1 -33 0
v 0 -34 0
v -1 -34 0
v -1 -33 0
v 0 -33 0
v -4 -35 0
v -5 -35 0
v -5 -34 0
v -4 -34 0
v -3 -35 0
v -4 -35 0
v -4 -34 0
v -3 -34 0
v -2 -35 0
v -3 -35 0
v -3 -34 0
v -2 -34 0
v -1 -35 0
v -2 -35 0
v -2 -34 0
v -1 -34 0
v 0 -35 0
v -1 -35 0
v -1 -34 0
v 0 -34 0
v -4 -36 0
v -5 -36 0
v -5 -35 0
v -4 -35 0
v -3 -36 0
v -4 -36 0
v -4 -35 0
v -3 -35 0
v -2 -36 0
v -3 -36 0
v -3 -35 0
v -2 -35 0
v -1 -36 0
v -2 -36 0
v -2 -35 0
v -1 -35 0
v 0 -36 0
v -1 -36 0
v -1 -35 0
v 0 -35 0
v -4 -37 0
v -5 -37 0
v -5 -36 0
v -4 -36 0
v -3 -37 0
v -4 -37 0
v -4 -36 0
v -3 -36 0
v -2 -37 0
v -3 -37 0
v -3 -36 0
v -2 -36 0
v -1 -37 0
v -2 -37 0
v -2 -36 0
v -1 -36 0
v 0 -37 0
v -1 -37 0
v -1 -36 0
v 0 -36 0
v -4 -38 0
v -5 -38 0
v -5 -37 0
v -4 -37 0
v -3 -38 0
v -4 -38 0
v -4 -37 0
v -3 -37 0
v -2 -38 0
v -3 -38 0
v -3 -37 0
v -2 -37 0
v -1 -38 0
v -2 -38 0
v -2 -37 0
v -1 -37 0
v 0 -38 0
v -1 -38 0
v -1 -37 0
v 0 -37 0
v -4 -39 0
v -5 -39 0
v -5 -38 0
v -4 -38 0
v -3 -39 0
v -4 -39 0
v -4 -38 0
v -3 -38 0
v -2 -39 0
v -3 -39 0
v -3 -38 0
v -2 -38 0
v -1 -39 0
v -2 -39 0
v -2 -38 0
v -1 -38 0
v 0 -39 0
v -1 -39 0
v -1 -38 0
v 0 -38 0
v -4 -40 0
v -5 -40 0
v -5 -39 0
v -4 -39 0
v -3 -40 0
v -4 -40 0
v -4 -39 0
v -3 -39 0
v -2 -40 0
v -3 -40 0
v -3 -39 0
v -2 -39 0
v -1 -40 0
v -2 -40 0
v -2 -39 0
v -1 -39 0
v 0 -40 0
v -1 -40 0
v -1 -39 0
v 0 -39 0
v -4 -41 0
v -5 -41 0
v -5 -40 0
v -4 -40 0
v -3 -41 0
v -4 -41 0
v -4 -40 0
v -3 -40 0
v -2 -41 0
v -3 -41 0
v -3 -40 0
v -2 -40 0
v -1 -41 0
v -2 -41 0
v -2 -40 0
v -1 -40 0
v 0 -41 0
v -1 -41 0
v -1 -40 0
v 0 -40 0
v -4 -42 0
v -5 -42 0
v -5 -41 0
v -4 -41 0
v -3 -42 0
v -4 -42 0
v -4 -41 0
v -3 -41 0
v -2 -42 0
v -3 -42 0
v -3 -41 0
v -2 -41 0
v -1 -42 0
v -2 -42 0
v -2 -41 0
v -1 -41 0
v 0 -42 0
v -1 -42 0
v -1 -41 0
v 0 -41 0
v -4 -43 0
v -5 -43 0
v -5 -42 0
v -4 -42 0
v -3 -43 0
v -4 -43 0
v -4 -42 0
v -3 -42 0
v -2 -43 0
v -3 -43 0
v -3 -42 0
v -2 -42 0
v -1 -43 0
v -2 -43 0
v -2 -42 0
v -1 -42 0
v 0 -43 0
v -1 -43 0
v -1 -42 0
v 0 -42 0
v -4 -44 0
v -5 -44 0
v -5 -43 0
v -4 -43 0
v -3 -44 0
v -4 -44 0
v -4 -43 0
v -3 -43 0
v -2 -44 0
v -3 -44 0
v -3 -43 0
v -2 -43 0
v -1 -44 0
v -2 -44 0
v -2 -43 0
v -1 -43 0
v 0 -44 0
v -1 -44 0
v -1 -43 0
v 0 -43 0
v -4 -45 0
v -5 -45 0
v -5 -44 0
v -4 -44 0
v -3 -45 0
v -4 -45 0
v -4 -44 0
v -3 -44 0
v -2 -45 0
v -3 -45 0
v -3 -44 0
v -2 -44 0
v -1 -45 0
v -2 -45 0
v -2 -44 0
v -1 -44 0
v 0 -45 0
v -1 -45 0
v -1 -44 0
v 0 -44 0
v -4 -46 0
v -5 -46 0
v -5 -45 0
v -4 -45 0
v -3 -46 0
v -4 -46 0
v -4 -45 0
v -3 -45 0
v -2 -46 0
v -3 -46 0
v -3 -45 0
v -2 -45 0
v -1 -46 0
v -2 -46 0
v -2 -45 0
v -1 -45 0
v 0 -46 0
v -1 -46 0
v -1 -45 0
v 0 -45 0
v -4 -47 0
v -5 -47 0
v -5 -46 0
v -4 -46 0
v -3 -47 0
v -4 -47 0
v -4 -46 0
v -3 -46 0
v -2 -47 0
v -3 -47 0
v -3 -46 0
v -2 -46 0
v -1 -47 0
v -2 -47 0
v -2 -46 0
v -1 -46 0
v 0 -47 0
v -1 -47 0
v -1 -46 0
v 0 -46 0
v -4 -48 0
v -5 -48 0
v -5 -47 0
v -4 -47 0
v -3 -48 0
v -4 -48 0
v -4 -47 0
v -3 -47 0
v -2 -48 0
v -3 -48 0
v -3 -47 0
v -2 -47 0
v -1 -48 0
v -2 -48 0
v -2 -47 0
v -1 -47 0
v 0 -48 0
v -1 -48 0
v -1 -47 0
v 0 -47 0
v -4 -49 0
v -5 -49 0
v -5 -48 0
v -4 -48 0
v -3 -49 0
v -4 -49 0
v -4 -48 0
v -3 -48 0
v -2 -49 0
v -3 -49 0
v -3 -48 0
v -2 -48 0
v -1 -49 0
v -2 -49 0
v -2 -48 0
v -1 -48 0
v 0 -49 0
v -1 -49 0
v -1 -48 0
v 0 -48 0

# Texture cooridinates (Count = 29)
vt 0.90625 0.875
vt 0.9375 0.875
vt 0.9375 0.90625
vt 0.90625 0.90625
vt 0.875 0.8125
vt 0.90625 0.8125
vt 0.90625 0.84375
vt 0.875 0.84375
vt 0.84375 0.8125
vt 0.84375 0.84375
vt 0.9375 0.8125
vt 0.9375 0.84375
vt 0.875 0.875
vt 0.875 0.90625
vt 0.0625 0.40625
vt 0.09375 0.40625
vt 0.09375 0.4375
vt 0.0625 0.4375
vt 0.03125 0.40625
vt 0.03125 0.4375
vt 0.0625 0.375
vt 0.09375 0.375
vt 0.03125 0.375
vt 0.0625 0.34375
vt 0.09375 0.34375
vt 0.03125 0.34375
vt 0.0625 0.3125
vt 0.09375 0.3125
vt 0.03125 0.3125

# Normal
vn 0 0 -1

# Mesh description
g Main_City_mesh_0007

# Faces
f 1/1/1 2/2/1 3/3/1 4/4/1
f 5/5/1 6/6/1 7/7/1 8/8/1
f 9/9/1 10/5/1 11/8/1 12/10/1
f 13/9/1 14/5/1 15/8/1 16/10/1
f 17/6/1 18/11/1 19/12/1 20/7/1
f 21/1/1 22/2/1 23/3/1 24/4/1
f 25/5/1 26/6/1 27/7/1 28/8/1
f 29/5/1 30/6/1 31/7/1 32/8/1
f 33/9/1 34/5/1 35/8/1 36/10/1
f 37/13/1 38/1/1 39/4/1 40/14/1
f 41/1/1 42/2/1 43/3/1 44/4/1
f 45/9/1 46/5/1 47/8/1 48/10/1
f 49/9/1 50/5/1 51/8/1 52/10/1
f 53/9/1 54/5/1 55/8/1 56/10/1
f 57/9/1 58/5/1 59/8/1 60/10/1
f 61/1/1 62/2/1 63/3/1 64/4/1
f 65/13/1 66/1/1 67/4/1 68/14/1
f 69/9/1 70/5/1 71/8/1 72/10/1
f 73/13/1 74/1/1 75/4/1 76/14/1
f 77/6/1 78/11/1 79/12/1 80/7/1
f 81/1/1 82/2/1 83/3/1 84/4/1
f 85/13/1 86/1/1 87/4/1 88/14/1
f 89/5/1 90/6/1 91/7/1 92/8/1
f 93/9/1 94/5/1 95/8/1 96/10/1
f 97/13/1 98/1/1 99/4/1 100/14/1
f 101/1/1 102/2/1 103/3/1 104/4/1
f 105/5/1 106/6/1 107/7/1 108/8/1
f 109/5/1 110/6/1 111/7/1 112/8/1
f 113/13/1 114/1/1 115/4/1 116/14/1
f 117/13/1 118/1/1 119/4/1 120/14/1
f 121/1/1 122/2/1 123/3/1 124/4/1
f 125/9/1 126/5/1 127/8/1 128/10/1
f 129/9/1 130/5/1 131/8/1 132/10/1
f 133/5/1 134/6/1 135/7/1 136/8/1
f 137/5/1 138/6/1 139/7/1 140/8/1
f 141/1/1 142/2/1 143/3/1 144/4/1
f 145/5/1 146/6/1 147/7/1 148/8/1
f 149/13/1 150/1/1 151/4/1 152/14/1
f 153/13/1 154/1/1 155/4/1 156/14/1
f 157/5/1 158/6/1 159/7/1 160/8/1
f 161/1/1 162/2/1 163/3/1 164/4/1
f 165/6/1 166/11/1 167/12/1 168/7/1
f 169/6/1 170/11/1 171/12/1 172/7/1
f 173/9/1 174/5/1 175/8/1 176/10/1
f 177/5/1 178/6/1 179/7/1 180/8/1
f 181/1/1 182/2/1 183/3/1 184/4/1
f 185/9/1 186/5/1 187/8/1 188/10/1
f 189/5/1 190/6/1 191/7/1 192/8/1
f 193/5/1 194/6/1 195/7/1 196/8/1
f 197/6/1 198/11/1 199/12/1 200/7/1
f 201/1/1 202/2/1 203/3/1 204/4/1
f 205/9/1 206/5/1 207/8/1 208/10/1
f 209/5/1 210/6/1 211/7/1 212/8/1
f 213/9/1 214/5/1 215/8/1 216/10/1
f 217/6/1 218/11/1 219/12/1 220/7/1
f 221/1/1 222/2/1 223/3/1 224/4/1
f 225/13/1 226/1/1 227/4/1 228/14/1
f 229/6/1 230/11/1 231/12/1 232/7/1
f 233/9/1 234/5/1 235/8/1 236/10/1
f 237/5/1 238/6/1 239/7/1 240/8/1
f 241/1/1 242/2/1 243/3/1 244/4/1
f 245/6/1 246/11/1 247/12/1 248/7/1
f 249/9/1 250/5/1 251/8/1 252/10/1
f 253/9/1 254/5/1 255/8/1 256/10/1
f 257/6/1 258/11/1 259/12/1 260/7/1
f 261/1/1 262/2/1 263/3/1 264/4/1
f 265/6/1 266/11/1 267/12/1 268/7/1
f 269/13/1 270/1/1 271/4/1 272/14/1
f 273/13/1 274/1/1 275/4/1 276/14/1
f 277/13/1 278/1/1 279/4/1 280/14/1
f 281/1/1 282/2/1 283/3/1 284/4/1
f 285/5/1 286/6/1 287/7/1 288/8/1
f 289/6/1 290/11/1 291/12/1 292/7/1
f 293/9/1 294/5/1 295/8/1 296/10/1
f 297/9/1 298/5/1 299/8/1 300/10/1
f 301/1/1 302/2/1 303/3/1 304/4/1
f 305/5/1 306/6/1 307/7/1 308/8/1
f 309/13/1 310/1/1 311/4/1 312/14/1
f 313/9/1 314/5/1 315/8/1 316/10/1
f 317/9/1 318/5/1 319/8/1 320/10/1
f 321/1/1 322/2/1 323/3/1 324/4/1
f 325/13/1 326/1/1 327/4/1 328/14/1
f 329/13/1 330/1/1 331/4/1 332/14/1
f 333/6/1 334/11/1 335/12/1 336/7/1
f 337/6/1 338/11/1 339/12/1 340/7/1
f 341/1/1 342/2/1 343/3/1 344/4/1
f 345/5/1 346/6/1 347/7/1 348/8/1
f 349/13/1 350/1/1 351/4/1 352/14/1
f 353/13/1 354/1/1 355/4/1 356/14/1
f 357/13/1 358/1/1 359/4/1 360/14/1
f 361/1/1 362/2/1 363/3/1 364/4/1
f 365/6/1 366/11/1 367/12/1 368/7/1
f 369/6/1 370/11/1 371/12/1 372/7/1
f 373/13/1 374/1/1 375/4/1 376/14/1
f 377/13/1 378/1/1 379/4/1 380/14/1
f 381/1/1 382/2/1 383/3/1 384/4/1
f 385/9/1 386/5/1 387/8/1 388/10/1
f 389/5/1 390/6/1 391/7/1 392/8/1
f 393/13/1 394/1/1 395/4/1 396/14/1
f 397/13/1 398/1/1 399/4/1 400/14/1
f 401/1/1 402/2/1 403/3/1 404/4/1
f 405/9/1 406/5/1 407/8/1 408/10/1
f 409/9/1 410/5/1 411/8/1 412/10/1
f 413/6/1 414/11/1 415/12/1 416/7/1
f 417/13/1 418/1/1 419/4/1 420/14/1
f 421/1/1 422/2/1 423/3/1 424/4/1
f 425/13/1 426/1/1 427/4/1 428/14/1
f 429/5/1 430/6/1 431/7/1 432/8/1
f 433/6/1 434/11/1 435/12/1 436/7/1
f 437/13/1 438/1/1 439/4/1 440/14/1
f 441/1/1 442/2/1 443/3/1 444/4/1
f 445/6/1 446/11/1 447/12/1 448/7/1
f 449/9/1 450/5/1 451/8/1 452/10/1
f 453/5/1 454/6/1 455/7/1 456/8/1
f 457/9/1 458/5/1 459/8/1 460/10/1
f 461/1/1 462/2/1 463/3/1 464/4/1
f 465/6/1 466/11/1 467/12/1 468/7/1
f 469/13/1 470/1/1 471/4/1 472/14/1
f 473/6/1 474/11/1 475/12/1 476/7/1
f 477/6/1 478/11/1 479/12/1 480/7/1
f 481/1/1 482/2/1 483/3/1 484/4/1
f 485/13/1 486/1/1 487/4/1 488/14/1
f 489/9/1 490/5/1 491/8/1 492/10/1
f 493/6/1 494/11/1 495/12/1 496/7/1
f 497/6/1 498/11/1 499/12/1 500/7/1
f 501/1/1 502/2/1 503/3/1 504/4/1
f 505/6/1 506/11/1 507/12/1 508/7/1
f 509/5/1 510/6/1 511/7/1 512/8/1
f 513/5/1 514/6/1 515/7/1 516/8/1
f 517/9/1 518/5/1 519/8/1 520/10/1
f 521/1/1 522/2/1 523/3/1 524/4/1
f 525/13/1 526/1/1 527/4/1 528/14/1
f 529/9/1 530/5/1 531/8/1 532/10/1
f 533/9/1 534/5/1 535/8/1 536/10/1
f 537/6/1 538/11/1 539/12/1 540/7/1
f 541/1/1 542/2/1 543/3/1 544/4/1
f 545/5/1 546/6/1 547/7/1 548/8/1
f 549/5/1 550/6/1 551/7/1 552/8/1
f 553/13/1 554/1/1 555/4/1 556/14/1
f 557/6/1 558/11/1 559/12/1 560/7/1
f 561/1/1 562/2/1 563/3/1 564/4/1
f 565/5/1 566/6/1 567/7/1 568/8/1
f 569/9/1 570/5/1 571/8/1 572/10/1
f 573/5/1 574/6/1 575/7/1 576/8/1
f 577/9/1 578/5/1 579/8/1 580/10/1
f 581/1/1 582/2/1 583/3/1 584/4/1
f 585/13/1 586/1/1 587/4/1 588/14/1
f 589/5/1 590/6/1 591/7/1 592/8/1
f 593/13/1 594/1/1 595/4/1 596/14/1
f 597/9/1 598/5/1 599/8/1 600/10/1
f 601/1/1 602/2/1 603/3/1 604/4/1
f 605/5/1 606/6/1 607/7/1 608/8/1
f 609/6/1 610/11/1 611/12/1 612/7/1
f 613/5/1 614/6/1 615/7/1 616/8/1
f 617/9/1 618/5/1 619/8/1 620/10/1
f 621/1/1 622/2/1 623/3/1 624/4/1
f 625/6/1 626/11/1 627/12/1 628/7/1
f 629/5/1 630/6/1 631/7/1 632/8/1
f 633/5/1 634/6/1 635/7/1 636/8/1
f 637/13/1 638/1/1 639/4/1 640/14/1
f 641/1/1 642/2/1 643/3/1 644/4/1
f 645/9/1 646/5/1 647/8/1 648/10/1
f 649/9/1 650/5/1 651/8/1 652/10/1
f 653/9/1 654/5/1 655/8/1 656/10/1
f 657/9/1 658/5/1 659/8/1 660/10/1
f 661/1/1 662/2/1 663/3/1 664/4/1
f 665/5/1 666/6/1 667/7/1 668/8/1
f 669/6/1 670/11/1 671/12/1 672/7/1
f 673/6/1 674/11/1 675/12/1 676/7/1
f 677/9/1 678/5/1 679/8/1 680/10/1
f 681/1/1 682/2/1 683/3/1 684/4/1
f 685/13/1 686/1/1 687/4/1 688/14/1
f 689/5/1 690/6/1 691/7/1 692/8/1
f 693/5/1 694/6/1 695/7/1 696/8/1
f 697/9/1 698/5/1 699/8/1 700/10/1
f 701/1/1 702/2/1 703/3/1 704/4/1
f 705/6/1 706/11/1 707/12/1 708/7/1
f 709/13/1 710/1/1 711/4/1 712/14/1
f 713/6/1 714/11/1 715/12/1 716/7/1
f 717/6/1 718/11/1 719/12/1 720/7/1
f 721/1/1 722/2/1 723/3/1 724/4/1
f 725/5/1 726/6/1 727/7/1 728/8/1
f 729/9/1 730/5/1 731/8/1 732/10/1
f 733/13/1 734/1/1 735/4/1 736/14/1
f 737/13/1 738/1/1 739/4/1 740/14/1
f 741/1/1 742/2/1 743/3/1 744/4/1
f 745/13/1 746/1/1 747/4/1 748/14/1
f 749/5/1 750/6/1 751/7/1 752/8/1
f 753/9/1 754/5/1 755/8/1 756/10/1
f 757/6/1 758/11/1 759/12/1 760/7/1
f 761/1/1 762/2/1 763/3/1 764/4/1
f 765/9/1 766/5/1 767/8/1 768/10/1
f 769/6/1 770/11/1 771/12/1 772/7/1
f 773/13/1 774/1/1 775/4/1 776/14/1
f 777/13/1 778/1/1 779/4/1 780/14/1
f 781/1/1 782/2/1 783/3/1 784/4/1
f 785/9/1 786/5/1 787/8/1 788/10/1
f 789/13/1 790/1/1 791/4/1 792/14/1
f 793/13/1 794/1/1 795/4/1 796/14/1
f 797/5/1 798/6/1 799/7/1 800/8/1
f 801/1/1 802/2/1 803/3/1 804/4/1
f 805/9/1 806/5/1 807/8/1 808/10/1
f 809/9/1 810/5/1 811/8/1 812/10/1
f 813/9/1 814/5/1 815/8/1 816/10/1
f 817/5/1 818/6/1 819/7/1 820/8/1
f 821/1/1 822/2/1 823/3/1 824/4/1
f 825/6/1 826/11/1 827/12/1 828/7/1
f 829/6/1 830/11/1 831/12/1 832/7/1
f 833/5/1 834/6/1 835/7/1 836/8/1
f 837/6/1 838/11/1 839/12/1 840/7/1
f 841/1/1 842/2/1 843/3/1 844/4/1
f 845/5/1 846/6/1 847/7/1 848/8/1
f 849/13/1 850/1/1 851/4/1 852/14/1
f 853/5/1 854/6/1 855/7/1 856/8/1
f 857/5/1 858/6/1 859/7/1 860/8/1
f 861/1/1 862/2/1 863/3/1 864/4/1
f 865/5/1 866/6/1 867/7/1 868/8/1
f 869/5/1 870/6/1 871/7/1 872/8/1
f 873/6/1 874/11/1 875/12/1 876/7/1
f 877/5/1 878/6/1 879/7/1 880/8/1
f 881/1/1 882/2/1 883/3/1 884/4/1
f 885/13/1 886/1/1 887/4/1 888/14/1
f 889/13/1 890/1/1 891/4/1 892/14/1
f 893/6/1 894/11/1 895/12/1 896/7/1
f 897/9/1 898/5/1 899/8/1 900/10/1
f 901/15/1 902/16/1 903/17/1 904/18/1
f 905/19/1 906/15/1 907/18/1 908/20/1
f 909/19/1 910/15/1 911/18/1 912/20/1
f 913/19/1 914/15/1 915/18/1 916/20/1
f 917/19/1 918/15/1 919/18/1 920/20/1
f 921/21/1 922/22/1 923/16/1 924/15/1
f 925/23/1 926/21/1 927/15/1 928/19/1
f 929/23/1 930/21/1 931/15/1 932/19/1
f 933/23/1 934/21/1 935/15/1 936/19/1
f 937/23/1 938/21/1 939/15/1 940/19/1
f 941/24/1 942/25/1 943/22/1 944/21/1
f 945/26/1 946/24/1 947/21/1 948/23/1
f 949/26/1 950/24/1 951/21/1 952/23/1
f 953/26/1 954/24/1 955/21/1 956/23/1
f 957/26/1 958/24/1 959/21/1 960/23/1
f 961/27/1 962/28/1 963/25/1 964/24/1
f 965/29/1 966/27/1 967/24/1 968/26/1
f 969/29/1 970/27/1 971/24/1 972/26/1
f 973/29/1 974/27/1 975/24/1 976/26/1
f 977/29/1 978/27/1 979/24/1 980/26/1

