# Tiled2Unity generated file. Do not modify by hand.
# Wavefront file for 'IceMap_mesh_0004.obj'

# Vertices (Count = 44)
v -9 -6 0
v -10 -6 0
v -10 -5 0
v -9 -5 0
v 0 -7 0
v -1 -7 0
v -1 -6 0
v 0 -6 0
v -17 -9 0
v -18 -9 0
v -18 -8 0
v -17 -8 0
v -9 -10 0
v -10 -10 0
v -10 -9 0
v -9 -9 0
v 0 -11 0
v -1 -11 0
v -1 -10 0
v 0 -10 0
v -5 -12 0
v -6 -12 0
v -6 -11 0
v -5 -11 0
v -28 -17 0
v -29 -17 0
v -29 -16 0
v -28 -16 0
v -13 -18 0
v -14 -18 0
v -14 -17 0
v -13 -17 0
v -11 -19 0
v -12 -19 0
v -12 -18 0
v -11 -18 0
v -8 -20 0
v -9 -20 0
v -9 -19 0
v -8 -19 0
v -25 -21 0
v -26 -21 0
v -26 -20 0
v -25 -20 0

# Texture cooridinates (Count = 4)
vt 0 0.6912442
vt 0.125 0.6912442
vt 0.125 0.6927804
vt 0 0.6927804

# Normal
vn 0 0 -1

# Mesh description
g IceMap_mesh_0004

# Faces
f 1/1/1 2/2/1 3/3/1 4/4/1
f 5/1/1 6/2/1 7/3/1 8/4/1
f 9/1/1 10/2/1 11/3/1 12/4/1
f 13/1/1 14/2/1 15/3/1 16/4/1
f 17/1/1 18/2/1 19/3/1 20/4/1
f 21/1/1 22/2/1 23/3/1 24/4/1
f 25/1/1 26/2/1 27/3/1 28/4/1
f 29/1/1 30/2/1 31/3/1 32/4/1
f 33/1/1 34/2/1 35/3/1 36/4/1
f 37/1/1 38/2/1 39/3/1 40/4/1
f 41/1/1 42/2/1 43/3/1 44/4/1

