# Tiled2Unity generated file. Do not modify by hand.
# Wavefront file for 'IceMap_mesh_0006.obj'

# Vertices (Count = 76)
v -13 -4 0
v -14 -4 0
v -14 -3 0
v -13 -3 0
v -16 -6 0
v -17 -6 0
v -17 -5 0
v -16 -5 0
v -18 -6 0
v -19 -6 0
v -19 -5 0
v -18 -5 0
v -23 -6 0
v -24 -6 0
v -24 -5 0
v -23 -5 0
v -10 -7 0
v -11 -7 0
v -11 -6 0
v -10 -6 0
v -29 -7 0
v -30 -7 0
v -30 -6 0
v -29 -6 0
v -3 -8 0
v -4 -8 0
v -4 -7 0
v -3 -7 0
v -26 -9 0
v -27 -9 0
v -27 -8 0
v -26 -8 0
v -21 -11 0
v -22 -11 0
v -22 -10 0
v -21 -10 0
v 0 -12 0
v -1 -12 0
v -1 -11 0
v 0 -11 0
v -26 -12 0
v -27 -12 0
v -27 -11 0
v -26 -11 0
v -6 -13 0
v -7 -13 0
v -7 -12 0
v -6 -12 0
v -22 -16 0
v -23 -16 0
v -23 -15 0
v -22 -15 0
v -12 -18 0
v -13 -18 0
v -13 -17 0
v -12 -17 0
v -1 -22 0
v -2 -22 0
v -2 -21 0
v -1 -21 0
v -29 -23 0
v -30 -23 0
v -30 -22 0
v -29 -22 0
v -15 -24 0
v -16 -24 0
v -16 -23 0
v -15 -23 0
v -32 -25 0
v -33 -25 0
v -33 -24 0
v -32 -24 0
v -18 -26 0
v -19 -26 0
v -19 -25 0
v -18 -25 0

# Texture cooridinates (Count = 4)
vt 0 0.6912442
vt 0.125 0.6912442
vt 0.125 0.6927804
vt 0 0.6927804

# Normal
vn 0 0 -1

# Mesh description
g IceMap_mesh_0006

# Faces
f 1/1/1 2/2/1 3/3/1 4/4/1
f 5/1/1 6/2/1 7/3/1 8/4/1
f 9/1/1 10/2/1 11/3/1 12/4/1
f 13/1/1 14/2/1 15/3/1 16/4/1
f 17/1/1 18/2/1 19/3/1 20/4/1
f 21/1/1 22/2/1 23/3/1 24/4/1
f 25/1/1 26/2/1 27/3/1 28/4/1
f 29/1/1 30/2/1 31/3/1 32/4/1
f 33/1/1 34/2/1 35/3/1 36/4/1
f 37/1/1 38/2/1 39/3/1 40/4/1
f 41/1/1 42/2/1 43/3/1 44/4/1
f 45/1/1 46/2/1 47/3/1 48/4/1
f 49/1/1 50/2/1 51/3/1 52/4/1
f 53/1/1 54/2/1 55/3/1 56/4/1
f 57/1/1 58/2/1 59/3/1 60/4/1
f 61/1/1 62/2/1 63/3/1 64/4/1
f 65/1/1 66/2/1 67/3/1 68/4/1
f 69/1/1 70/2/1 71/3/1 72/4/1
f 73/1/1 74/2/1 75/3/1 76/4/1

