# Tiled2Unity generated file. Do not modify by hand.
# Wavefront file for 'Hell_mesh_0016.obj'

# Vertices (Count = 48)
v -10 -10 0
v -11 -10 0
v -11 -9 0
v -10 -9 0
v -11 -10 0
v -12 -10 0
v -12 -9 0
v -11 -9 0
v -12 -10 0
v -13 -10 0
v -13 -9 0
v -12 -9 0
v -13 -10 0
v -14 -10 0
v -14 -9 0
v -13 -9 0
v -3 -14 0
v -4 -14 0
v -4 -13 0
v -3 -13 0
v -4 -14 0
v -5 -14 0
v -5 -13 0
v -4 -13 0
v -6 -14 0
v -7 -14 0
v -7 -13 0
v -6 -13 0
v -7 -14 0
v -8 -14 0
v -8 -13 0
v -7 -13 0
v -3 -15 0
v -4 -15 0
v -4 -14 0
v -3 -14 0
v -4 -15 0
v -5 -15 0
v -5 -14 0
v -4 -14 0
v -6 -15 0
v -7 -15 0
v -7 -14 0
v -6 -14 0
v -7 -15 0
v -8 -15 0
v -8 -14 0
v -7 -14 0

# Texture cooridinates (Count = 17)
vt 0 0.7788019
vt 0.125 0.7788019
vt 0.125 0.7803379
vt 0 0.7803379
vt 0.25 0.7788019
vt 0.25 0.7803379
vt 0.375 0.7788019
vt 0.375 0.7803379
vt 0.75 0.6897081
vt 0.875 0.6897081
vt 0.875 0.6912442
vt 0.75 0.6912442
vt 1 0.6897081
vt 1 0.6912442
vt 0.75 0.688172
vt 0.875 0.688172
vt 1 0.688172

# Normal
vn 0 0 -1

# Mesh description
g Hell_mesh_0016

# Faces
f 1/1/1 2/2/1 3/3/1 4/4/1
f 5/2/1 6/5/1 7/6/1 8/3/1
f 9/2/1 10/5/1 11/6/1 12/3/1
f 13/5/1 14/7/1 15/8/1 16/6/1
f 17/9/1 18/10/1 19/11/1 20/12/1
f 21/10/1 22/13/1 23/14/1 24/11/1
f 25/9/1 26/10/1 27/11/1 28/12/1
f 29/10/1 30/13/1 31/14/1 32/11/1
f 33/15/1 34/16/1 35/10/1 36/9/1
f 37/16/1 38/17/1 39/13/1 40/10/1
f 41/15/1 42/16/1 43/10/1 44/9/1
f 45/16/1 46/17/1 47/13/1 48/10/1

