# Tiled2Unity generated file. Do not modify by hand.
# Wavefront file for 'Hell_mesh_0021.obj'

# Vertices (Count = 140)
v -1 -2 0
v -2 -2 0
v -2 -1 0
v -1 -1 0
v -2 -2 0
v -3 -2 0
v -3 -1 0
v -2 -1 0
v -9 -2 0
v -10 -2 0
v -10 -1 0
v -9 -1 0
v -17 -2 0
v -18 -2 0
v -18 -1 0
v -17 -1 0
v -18 -2 0
v -19 -2 0
v -19 -1 0
v -18 -1 0
v -25 -4 0
v -26 -4 0
v -26 -3 0
v -25 -3 0
v -2 -5 0
v -3 -5 0
v -3 -4 0
v -2 -4 0
v -7 -5 0
v -8 -5 0
v -8 -4 0
v -7 -4 0
v -24 -5 0
v -25 -5 0
v -25 -4 0
v -24 -4 0
v -10 -6 0
v -11 -6 0
v -11 -5 0
v -10 -5 0
v -11 -6 0
v -12 -6 0
v -12 -5 0
v -11 -5 0
v -12 -6 0
v -13 -6 0
v -13 -5 0
v -12 -5 0
v -13 -6 0
v -14 -6 0
v -14 -5 0
v -13 -5 0
v -12 -10 0
v -13 -10 0
v -13 -9 0
v -12 -9 0
v -12 -11 0
v -13 -11 0
v -13 -10 0
v -12 -10 0
v -10 -12 0
v -11 -12 0
v -11 -11 0
v -10 -11 0
v -11 -12 0
v -12 -12 0
v -12 -11 0
v -11 -11 0
v -12 -12 0
v -13 -12 0
v -13 -11 0
v -12 -11 0
v -13 -12 0
v -14 -12 0
v -14 -11 0
v -13 -11 0
v -10 -16 0
v -11 -16 0
v -11 -15 0
v -10 -15 0
v -11 -16 0
v -12 -16 0
v -12 -15 0
v -11 -15 0
v -12 -16 0
v -13 -16 0
v -13 -15 0
v -12 -15 0
v -13 -16 0
v -14 -16 0
v -14 -15 0
v -13 -15 0
v -24 -19 0
v -25 -19 0
v -25 -18 0
v -24 -18 0
v -25 -19 0
v -26 -19 0
v -26 -18 0
v -25 -18 0
v -24 -20 0
v -25 -20 0
v -25 -19 0
v -24 -19 0
v -25 -20 0
v -26 -20 0
v -26 -19 0
v -25 -19 0
v -24 -21 0
v -25 -21 0
v -25 -20 0
v -24 -20 0
v -25 -21 0
v -26 -21 0
v -26 -20 0
v -25 -20 0
v -24 -22 0
v -25 -22 0
v -25 -21 0
v -24 -21 0
v -25 -22 0
v -26 -22 0
v -26 -21 0
v -25 -21 0
v -24 -23 0
v -25 -23 0
v -25 -22 0
v -24 -22 0
v -25 -23 0
v -26 -23 0
v -26 -22 0
v -25 -22 0
v -24 -24 0
v -25 -24 0
v -25 -23 0
v -24 -23 0
v -25 -24 0
v -26 -24 0
v -26 -23 0
v -25 -23 0

# Texture cooridinates (Count = 14)
vt 0.625 0.6958525
vt 0.75 0.6958525
vt 0.75 0.6973886
vt 0.625 0.6973886
vt 0.5 0.6958525
vt 0.5 0.6973886
vt 0.125 0.7788019
vt 0.25 0.7788019
vt 0.25 0.7803379
vt 0.125 0.7803379
vt 0.25 0.5821812
vt 0.25 0.5837173
vt 0.125 0.5837173
vt 0.125 0.5821812

# Normal
vn 0 0 -1

# Mesh description
g Hell_mesh_0021

# Faces
f 1/1/1 2/2/1 3/3/1 4/4/1
f 5/5/1 6/1/1 7/4/1 8/6/1
f 9/1/1 10/2/1 11/3/1 12/4/1
f 13/5/1 14/1/1 15/4/1 16/6/1
f 17/1/1 18/2/1 19/3/1 20/4/1
f 21/5/1 22/1/1 23/4/1 24/6/1
f 25/1/1 26/2/1 27/3/1 28/4/1
f 29/5/1 30/1/1 31/4/1 32/6/1
f 33/1/1 34/2/1 35/3/1 36/4/1
f 37/7/1 38/8/1 39/9/1 40/10/1
f 41/7/1 42/8/1 43/9/1 44/10/1
f 45/7/1 46/8/1 47/9/1 48/10/1
f 49/7/1 50/8/1 51/9/1 52/10/1
f 53/1/1 54/2/1 55/3/1 56/4/1
f 57/5/1 58/1/1 59/4/1 60/6/1
f 61/11/1 62/12/1 63/13/1 64/14/1
f 65/11/1 66/12/1 67/13/1 68/14/1
f 69/11/1 70/12/1 71/13/1 72/14/1
f 73/11/1 74/12/1 75/13/1 76/14/1
f 77/11/1 78/12/1 79/13/1 80/14/1
f 81/11/1 82/12/1 83/13/1 84/14/1
f 85/11/1 86/12/1 87/13/1 88/14/1
f 89/11/1 90/12/1 91/13/1 92/14/1
f 93/14/1 94/11/1 95/12/1 96/13/1
f 97/14/1 98/11/1 99/12/1 100/13/1
f 101/14/1 102/11/1 103/12/1 104/13/1
f 105/14/1 106/11/1 107/12/1 108/13/1
f 109/14/1 110/11/1 111/12/1 112/13/1
f 113/14/1 114/11/1 115/12/1 116/13/1
f 117/14/1 118/11/1 119/12/1 120/13/1
f 121/14/1 122/11/1 123/12/1 124/13/1
f 125/14/1 126/11/1 127/12/1 128/13/1
f 129/14/1 130/11/1 131/12/1 132/13/1
f 133/14/1 134/11/1 135/12/1 136/13/1
f 137/14/1 138/11/1 139/12/1 140/13/1

