# Tiled2Unity generated file. Do not modify by hand.
# Wavefront file for 'Hell_mesh_0018.obj'

# Vertices (Count = 152)
v 0 -1 0
v -1 -1 0
v -1 0 0
v 0 0 0
v -1 -1 0
v -2 -1 0
v -2 0 0
v -1 0 0
v -2 -1 0
v -3 -1 0
v -3 0 0
v -2 0 0
v -3 -1 0
v -4 -1 0
v -4 0 0
v -3 0 0
v -4 -1 0
v -5 -1 0
v -5 0 0
v -4 0 0
v -5 -1 0
v -6 -1 0
v -6 0 0
v -5 0 0
v -6 -1 0
v -7 -1 0
v -7 0 0
v -6 0 0
v -7 -1 0
v -8 -1 0
v -8 0 0
v -7 0 0
v -8 -1 0
v -9 -1 0
v -9 0 0
v -8 0 0
v -9 -1 0
v -10 -1 0
v -10 0 0
v -9 0 0
v -10 -1 0
v -11 -1 0
v -11 0 0
v -10 0 0
v -11 -1 0
v -12 -1 0
v -12 0 0
v -11 0 0
v -12 -1 0
v -13 -1 0
v -13 0 0
v -12 0 0
v -13 -1 0
v -14 -1 0
v -14 0 0
v -13 0 0
v -14 -1 0
v -15 -1 0
v -15 0 0
v -14 0 0
v -15 -1 0
v -16 -1 0
v -16 0 0
v -15 0 0
v -16 -1 0
v -17 -1 0
v -17 0 0
v -16 0 0
v -17 -1 0
v -18 -1 0
v -18 0 0
v -17 0 0
v -18 -1 0
v -19 -1 0
v -19 0 0
v -18 0 0
v -19 -1 0
v -20 -1 0
v -20 0 0
v -19 0 0
v -20 -1 0
v -21 -1 0
v -21 0 0
v -20 0 0
v -21 -1 0
v -22 -1 0
v -22 0 0
v -21 0 0
v -22 -1 0
v -23 -1 0
v -23 0 0
v -22 0 0
v -23 -1 0
v -24 -1 0
v -24 0 0
v -23 0 0
v -24 -1 0
v -25 -1 0
v -25 0 0
v -24 0 0
v -25 -1 0
v -26 -1 0
v -26 0 0
v -25 0 0
v -26 -1 0
v -27 -1 0
v -27 0 0
v -26 0 0
v -27 -1 0
v -28 -1 0
v -28 0 0
v -27 0 0
v -28 -1 0
v -29 -1 0
v -29 0 0
v -28 0 0
v -29 -1 0
v -30 -1 0
v -30 0 0
v -29 0 0
v 0 -2 0
v -1 -2 0
v -1 -1 0
v 0 -1 0
v 0 -3 0
v -1 -3 0
v -1 -2 0
v 0 -2 0
v 0 -4 0
v -1 -4 0
v -1 -3 0
v 0 -3 0
v 0 -5 0
v -1 -5 0
v -1 -4 0
v 0 -4 0
v -29 -7 0
v -30 -7 0
v -30 -6 0
v -29 -6 0
v -10 -9 0
v -11 -9 0
v -11 -8 0
v -10 -8 0
v -11 -9 0
v -12 -9 0
v -12 -8 0
v -11 -8 0
v -13 -9 0
v -14 -9 0
v -14 -8 0
v -13 -8 0

# Texture cooridinates (Count = 16)
vt 0 0.7803379
vt 0.125 0.7803379
vt 0.125 0.7818741
vt 0 0.7818741
vt 0.25 0.7803379
vt 0.25 0.7818741
vt 0.375 0.7803379
vt 0.375 0.7818741
vt 0 0.7788019
vt 0.125 0.7788019
vt 0.5 0.751152
vt 0.625 0.751152
vt 0.625 0.7526882
vt 0.5 0.7526882
vt 0.25 0.7788019
vt 0.375 0.7788019

# Normal
vn 0 0 -1

# Mesh description
g Hell_mesh_0018

# Faces
f 1/1/1 2/2/1 3/3/1 4/4/1
f 5/2/1 6/5/1 7/6/1 8/3/1
f 9/2/1 10/5/1 11/6/1 12/3/1
f 13/2/1 14/5/1 15/6/1 16/3/1
f 17/2/1 18/5/1 19/6/1 20/3/1
f 21/2/1 22/5/1 23/6/1 24/3/1
f 25/2/1 26/5/1 27/6/1 28/3/1
f 29/2/1 30/5/1 31/6/1 32/3/1
f 33/2/1 34/5/1 35/6/1 36/3/1
f 37/2/1 38/5/1 39/6/1 40/3/1
f 41/2/1 42/5/1 43/6/1 44/3/1
f 45/2/1 46/5/1 47/6/1 48/3/1
f 49/2/1 50/5/1 51/6/1 52/3/1
f 53/2/1 54/5/1 55/6/1 56/3/1
f 57/2/1 58/5/1 59/6/1 60/3/1
f 61/2/1 62/5/1 63/6/1 64/3/1
f 65/2/1 66/5/1 67/6/1 68/3/1
f 69/2/1 70/5/1 71/6/1 72/3/1
f 73/2/1 74/5/1 75/6/1 76/3/1
f 77/2/1 78/5/1 79/6/1 80/3/1
f 81/2/1 82/5/1 83/6/1 84/3/1
f 85/2/1 86/5/1 87/6/1 88/3/1
f 89/2/1 90/5/1 91/6/1 92/3/1
f 93/2/1 94/5/1 95/6/1 96/3/1
f 97/2/1 98/5/1 99/6/1 100/3/1
f 101/2/1 102/5/1 103/6/1 104/3/1
f 105/2/1 106/5/1 107/6/1 108/3/1
f 109/2/1 110/5/1 111/6/1 112/3/1
f 113/2/1 114/5/1 115/6/1 116/3/1
f 117/5/1 118/7/1 119/8/1 120/6/1
f 121/9/1 122/10/1 123/2/1 124/1/1
f 125/9/1 126/10/1 127/2/1 128/1/1
f 129/9/1 130/10/1 131/2/1 132/1/1
f 133/9/1 134/10/1 135/2/1 136/1/1
f 137/11/1 138/12/1 139/13/1 140/14/1
f 141/9/1 142/10/1 143/2/1 144/1/1
f 145/10/1 146/15/1 147/5/1 148/2/1
f 149/15/1 150/16/1 151/7/1 152/5/1

