# Tiled2Unity generated file. Do not modify by hand.
# Wavefront file for 'Hell_mesh_0006.obj'

# Vertices (Count = 208)
v -10 -18 0
v -11 -18 0
v -11 -17 0
v -10 -17 0
v -11 -18 0
v -12 -18 0
v -12 -17 0
v -11 -17 0
v -12 -18 0
v -13 -18 0
v -13 -17 0
v -12 -17 0
v -13 -18 0
v -14 -18 0
v -14 -17 0
v -13 -17 0
v -10 -19 0
v -11 -19 0
v -11 -18 0
v -10 -18 0
v -11 -19 0
v -12 -19 0
v -12 -18 0
v -11 -18 0
v -12 -19 0
v -13 -19 0
v -13 -18 0
v -12 -18 0
v -13 -19 0
v -14 -19 0
v -14 -18 0
v -13 -18 0
v -10 -20 0
v -11 -20 0
v -11 -19 0
v -10 -19 0
v -11 -20 0
v -12 -20 0
v -12 -19 0
v -11 -19 0
v -12 -20 0
v -13 -20 0
v -13 -19 0
v -12 -19 0
v -13 -20 0
v -14 -20 0
v -14 -19 0
v -13 -19 0
v -7 -21 0
v -8 -21 0
v -8 -20 0
v -7 -20 0
v -8 -21 0
v -9 -21 0
v -9 -20 0
v -8 -20 0
v -9 -21 0
v -10 -21 0
v -10 -20 0
v -9 -20 0
v -10 -21 0
v -11 -21 0
v -11 -20 0
v -10 -20 0
v -11 -21 0
v -12 -21 0
v -12 -20 0
v -11 -20 0
v -12 -21 0
v -13 -21 0
v -13 -20 0
v -12 -20 0
v -13 -21 0
v -14 -21 0
v -14 -20 0
v -13 -20 0
v -14 -21 0
v -15 -21 0
v -15 -20 0
v -14 -20 0
v -15 -21 0
v -16 -21 0
v -16 -20 0
v -15 -20 0
v -16 -21 0
v -17 -21 0
v -17 -20 0
v -16 -20 0
v -7 -22 0
v -8 -22 0
v -8 -21 0
v -7 -21 0
v -10 -22 0
v -11 -22 0
v -11 -21 0
v -10 -21 0
v -11 -22 0
v -12 -22 0
v -12 -21 0
v -11 -21 0
v -12 -22 0
v -13 -22 0
v -13 -21 0
v -12 -21 0
v -13 -22 0
v -14 -22 0
v -14 -21 0
v -13 -21 0
v -16 -22 0
v -17 -22 0
v -17 -21 0
v -16 -21 0
v -7 -23 0
v -8 -23 0
v -8 -22 0
v -7 -22 0
v -16 -23 0
v -17 -23 0
v -17 -22 0
v -16 -22 0
v -7 -24 0
v -8 -24 0
v -8 -23 0
v -7 -23 0
v -16 -24 0
v -17 -24 0
v -17 -23 0
v -16 -23 0
v -7 -25 0
v -8 -25 0
v -8 -24 0
v -7 -24 0
v -16 -25 0
v -17 -25 0
v -17 -24 0
v -16 -24 0
v -7 -26 0
v -8 -26 0
v -8 -25 0
v -7 -25 0
v -16 -26 0
v -17 -26 0
v -17 -25 0
v -16 -25 0
v -7 -27 0
v -8 -27 0
v -8 -26 0
v -7 -26 0
v -16 -27 0
v -17 -27 0
v -17 -26 0
v -16 -26 0
v -7 -28 0
v -8 -28 0
v -8 -27 0
v -7 -27 0
v -16 -28 0
v -17 -28 0
v -17 -27 0
v -16 -27 0
v -7 -29 0
v -8 -29 0
v -8 -28 0
v -7 -28 0
v -16 -29 0
v -17 -29 0
v -17 -28 0
v -16 -28 0
v -7 -30 0
v -8 -30 0
v -8 -29 0
v -7 -29 0
v -8 -30 0
v -9 -30 0
v -9 -29 0
v -8 -29 0
v -9 -30 0
v -10 -30 0
v -10 -29 0
v -9 -29 0
v -10 -30 0
v -11 -30 0
v -11 -29 0
v -10 -29 0
v -11 -30 0
v -12 -30 0
v -12 -29 0
v -11 -29 0
v -12 -30 0
v -13 -30 0
v -13 -29 0
v -12 -29 0
v -13 -30 0
v -14 -30 0
v -14 -29 0
v -13 -29 0
v -14 -30 0
v -15 -30 0
v -15 -29 0
v -14 -29 0
v -15 -30 0
v -16 -30 0
v -16 -29 0
v -15 -29 0
v -16 -30 0
v -17 -30 0
v -17 -29 0
v -16 -29 0

# Texture cooridinates (Count = 31)
vt 0.375 0.7849462
vt 0.5 0.7849462
vt 0.5 0.7864823
vt 0.375 0.7864823
vt 0.625 0.7849462
vt 0.625 0.7864823
vt 0.75 0.7849462
vt 0.75 0.7864823
vt 0.375 0.7834101
vt 0.5 0.7834101
vt 0.625 0.7834101
vt 0.75 0.7834101
vt 0 0.7803379
vt 0.125 0.7803379
vt 0.125 0.7818741
vt 0 0.7818741
vt 0.25 0.7803379
vt 0.25 0.7818741
vt 0.375 0.7803379
vt 0.375 0.7818741
vt 0 0.7788019
vt 0.125 0.7788019
vt 0.5 0.7818741
vt 0.625 0.7818741
vt 0.75 0.7818741
vt 0.25 0.7788019
vt 0.375 0.7788019
vt 0 0.7772657
vt 0.125 0.7772657
vt 0.25 0.7772657
vt 0.375 0.7772657

# Normal
vn 0 0 -1

# Mesh description
g Hell_mesh_0006

# Faces
f 1/1/1 2/2/1 3/3/1 4/4/1
f 5/2/1 6/5/1 7/6/1 8/3/1
f 9/2/1 10/5/1 11/6/1 12/3/1
f 13/5/1 14/7/1 15/8/1 16/6/1
f 17/9/1 18/10/1 19/2/1 20/1/1
f 21/10/1 22/11/1 23/5/1 24/2/1
f 25/10/1 26/11/1 27/5/1 28/2/1
f 29/11/1 30/12/1 31/7/1 32/5/1
f 33/9/1 34/10/1 35/2/1 36/1/1
f 37/10/1 38/11/1 39/5/1 40/2/1
f 41/10/1 42/11/1 43/5/1 44/2/1
f 45/11/1 46/12/1 47/7/1 48/5/1
f 49/13/1 50/14/1 51/15/1 52/16/1
f 53/14/1 54/17/1 55/18/1 56/15/1
f 57/14/1 58/17/1 59/18/1 60/15/1
f 61/9/1 62/10/1 63/2/1 64/1/1
f 65/10/1 66/11/1 67/5/1 68/2/1
f 69/10/1 70/11/1 71/5/1 72/2/1
f 73/11/1 74/12/1 75/7/1 76/5/1
f 77/14/1 78/17/1 79/18/1 80/15/1
f 81/14/1 82/17/1 83/18/1 84/15/1
f 85/17/1 86/19/1 87/20/1 88/18/1
f 89/21/1 90/22/1 91/14/1 92/13/1
f 93/20/1 94/23/1 95/10/1 96/9/1
f 97/23/1 98/24/1 99/11/1 100/10/1
f 101/23/1 102/24/1 103/11/1 104/10/1
f 105/24/1 106/25/1 107/12/1 108/11/1
f 109/26/1 110/27/1 111/19/1 112/17/1
f 113/21/1 114/22/1 115/14/1 116/13/1
f 117/26/1 118/27/1 119/19/1 120/17/1
f 121/21/1 122/22/1 123/14/1 124/13/1
f 125/26/1 126/27/1 127/19/1 128/17/1
f 129/21/1 130/22/1 131/14/1 132/13/1
f 133/26/1 134/27/1 135/19/1 136/17/1
f 137/21/1 138/22/1 139/14/1 140/13/1
f 141/26/1 142/27/1 143/19/1 144/17/1
f 145/21/1 146/22/1 147/14/1 148/13/1
f 149/26/1 150/27/1 151/19/1 152/17/1
f 153/21/1 154/22/1 155/14/1 156/13/1
f 157/26/1 158/27/1 159/19/1 160/17/1
f 161/21/1 162/22/1 163/14/1 164/13/1
f 165/26/1 166/27/1 167/19/1 168/17/1
f 169/28/1 170/29/1 171/22/1 172/21/1
f 173/29/1 174/30/1 175/26/1 176/22/1
f 177/29/1 178/30/1 179/26/1 180/22/1
f 181/29/1 182/30/1 183/26/1 184/22/1
f 185/29/1 186/30/1 187/26/1 188/22/1
f 189/29/1 190/30/1 191/26/1 192/22/1
f 193/29/1 194/30/1 195/26/1 196/22/1
f 197/29/1 198/30/1 199/26/1 200/22/1
f 201/29/1 202/30/1 203/26/1 204/22/1
f 205/30/1 206/31/1 207/27/1 208/26/1

