# Tiled2Unity generated file. Do not modify by hand.
# Wavefront file for 'Hell_mesh_0013.obj'

# Vertices (Count = 112)
v -1 -9 0
v -2 -9 0
v -2 -8 0
v -1 -8 0
v -2 -9 0
v -3 -9 0
v -3 -8 0
v -2 -8 0
v -3 -9 0
v -4 -9 0
v -4 -8 0
v -3 -8 0
v -4 -9 0
v -5 -9 0
v -5 -8 0
v -4 -8 0
v -5 -9 0
v -6 -9 0
v -6 -8 0
v -5 -8 0
v -6 -9 0
v -7 -9 0
v -7 -8 0
v -6 -8 0
v -7 -9 0
v -8 -9 0
v -8 -8 0
v -7 -8 0
v -8 -9 0
v -9 -9 0
v -9 -8 0
v -8 -8 0
v -9 -9 0
v -10 -9 0
v -10 -8 0
v -9 -8 0
v -1 -10 0
v -2 -10 0
v -2 -9 0
v -1 -9 0
v -9 -10 0
v -10 -10 0
v -10 -9 0
v -9 -9 0
v -1 -11 0
v -2 -11 0
v -2 -10 0
v -1 -10 0
v -9 -11 0
v -10 -11 0
v -10 -10 0
v -9 -10 0
v -1 -12 0
v -2 -12 0
v -2 -11 0
v -1 -11 0
v -9 -12 0
v -10 -12 0
v -10 -11 0
v -9 -11 0
v -1 -13 0
v -2 -13 0
v -2 -12 0
v -1 -12 0
v -9 -13 0
v -10 -13 0
v -10 -12 0
v -9 -12 0
v -1 -14 0
v -2 -14 0
v -2 -13 0
v -1 -13 0
v -9 -14 0
v -10 -14 0
v -10 -13 0
v -9 -13 0
v -1 -15 0
v -2 -15 0
v -2 -14 0
v -1 -14 0
v -2 -15 0
v -3 -15 0
v -3 -14 0
v -2 -14 0
v -3 -15 0
v -4 -15 0
v -4 -14 0
v -3 -14 0
v -4 -15 0
v -5 -15 0
v -5 -14 0
v -4 -14 0
v -5 -15 0
v -6 -15 0
v -6 -14 0
v -5 -14 0
v -6 -15 0
v -7 -15 0
v -7 -14 0
v -6 -14 0
v -7 -15 0
v -8 -15 0
v -8 -14 0
v -7 -14 0
v -8 -15 0
v -9 -15 0
v -9 -14 0
v -8 -14 0
v -9 -15 0
v -10 -15 0
v -10 -14 0
v -9 -14 0

# Texture cooridinates (Count = 16)
vt 0.375 0.7542243
vt 0.5 0.7542243
vt 0.5 0.7557604
vt 0.375 0.7557604
vt 0.625 0.7542243
vt 0.625 0.7557604
vt 0.75 0.7542243
vt 0.75 0.7557604
vt 0.375 0.7526882
vt 0.5 0.7526882
vt 0.625 0.7526882
vt 0.75 0.7526882
vt 0.375 0.751152
vt 0.5 0.751152
vt 0.625 0.751152
vt 0.75 0.751152

# Normal
vn 0 0 -1

# Mesh description
g Hell_mesh_0013

# Faces
f 1/1/1 2/2/1 3/3/1 4/4/1
f 5/2/1 6/5/1 7/6/1 8/3/1
f 9/2/1 10/5/1 11/6/1 12/3/1
f 13/2/1 14/5/1 15/6/1 16/3/1
f 17/2/1 18/5/1 19/6/1 20/3/1
f 21/2/1 22/5/1 23/6/1 24/3/1
f 25/2/1 26/5/1 27/6/1 28/3/1
f 29/2/1 30/5/1 31/6/1 32/3/1
f 33/5/1 34/7/1 35/8/1 36/6/1
f 37/9/1 38/10/1 39/2/1 40/1/1
f 41/11/1 42/12/1 43/7/1 44/5/1
f 45/9/1 46/10/1 47/2/1 48/1/1
f 49/11/1 50/12/1 51/7/1 52/5/1
f 53/9/1 54/10/1 55/2/1 56/1/1
f 57/11/1 58/12/1 59/7/1 60/5/1
f 61/9/1 62/10/1 63/2/1 64/1/1
f 65/11/1 66/12/1 67/7/1 68/5/1
f 69/9/1 70/10/1 71/2/1 72/1/1
f 73/11/1 74/12/1 75/7/1 76/5/1
f 77/13/1 78/14/1 79/10/1 80/9/1
f 81/14/1 82/15/1 83/11/1 84/10/1
f 85/14/1 86/15/1 87/11/1 88/10/1
f 89/14/1 90/15/1 91/11/1 92/10/1
f 93/14/1 94/15/1 95/11/1 96/10/1
f 97/14/1 98/15/1 99/11/1 100/10/1
f 101/14/1 102/15/1 103/11/1 104/10/1
f 105/14/1 106/15/1 107/11/1 108/10/1
f 109/15/1 110/16/1 111/12/1 112/11/1

