# Tiled2Unity generated file. Do not modify by hand.
# Wavefront file for 'House_First_Floor_mesh_0004.obj'

# Vertices (Count = 16)
v -2 -2 0
v -3 -2 0
v -3 -1 0
v -2 -1 0
v -6 -2 0
v -7 -2 0
v -7 -1 0
v -6 -1 0
v -2 -3 0
v -3 -3 0
v -3 -2 0
v -2 -2 0
v -6 -3 0
v -7 -3 0
v -7 -2 0
v -6 -2 0

# Texture cooridinates (Count = 6)
vt 0.375 0.4360902
vt 0.5 0.4360902
vt 0.5 0.443609
vt 0.375 0.443609
vt 0.375 0.4285714
vt 0.5 0.4285714

# Normal
vn 0 0 -1

# Mesh description
g House_First_Floor_mesh_0004

# Faces
f 1/1/1 2/2/1 3/3/1 4/4/1
f 5/1/1 6/2/1 7/3/1 8/4/1
f 9/5/1 10/6/1 11/2/1 12/1/1
f 13/5/1 14/6/1 15/2/1 16/1/1

